<svg width="20" height="20" viewBox="0 0 20 20" fill="none" xmlns="http://www.w3.org/2000/svg">
<path d="M8.795 5.19994L5.97583 1.94578C5.65083 1.57078 5.055 1.57244 4.6775 1.95078L2.35917 4.27328C1.66917 4.96411 1.47167 5.98994 1.87083 6.81244C4.25552 11.7499 8.23754 15.7375 13.1717 18.1291C13.9933 18.5283 15.0183 18.3308 15.7083 17.6399L18.0483 15.2958C18.4275 14.9166 18.4283 14.3174 18.05 13.9924L14.7833 11.1883C14.4417 10.8949 13.9108 10.9333 13.5683 11.2766L12.4317 12.4149C12.3735 12.4759 12.2969 12.5161 12.2136 12.5294C12.1304 12.5426 12.0451 12.5282 11.9708 12.4883C10.1129 11.4184 8.57166 9.87513 7.50417 8.01578C7.46419 7.9414 7.44971 7.85597 7.46296 7.77257C7.47621 7.68918 7.51644 7.61244 7.5775 7.55411L8.71083 6.41994C9.05417 6.07494 9.09167 5.54161 8.795 5.19911V5.19994Z" stroke="white" stroke-width="2.5" stroke-linecap="round" stroke-linejoin="round"/>
</svg>
