<svg width="31" height="30" viewBox="0 0 31 30" fill="none" xmlns="http://www.w3.org/2000/svg">
<g clip-path="url(#clip0)">
<path d="M30.0538 6.17122C29.01 6.63372 27.8888 6.94622 26.71 7.08747C27.9263 6.35971 28.8362 5.21431 29.27 3.86497C28.1273 4.54371 26.8767 5.02147 25.5725 5.27747C24.6955 4.34106 23.5338 3.72038 22.2679 3.51182C21.002 3.30325 19.7026 3.51846 18.5716 4.12404C17.4405 4.72962 16.541 5.69168 16.0127 6.86085C15.4844 8.03003 15.3569 9.34091 15.65 10.59C13.3346 10.4737 11.0695 9.87191 9.00179 8.82361C6.93404 7.7753 5.10982 6.30393 3.64751 4.50497C3.14751 5.36747 2.86001 6.36747 2.86001 7.43247C2.85946 8.39122 3.09556 9.33528 3.54736 10.1809C3.99917 11.0265 4.65272 11.7475 5.45001 12.28C4.52536 12.2506 3.62111 12.0007 2.81251 11.5512V11.6262C2.81242 12.9709 3.27756 14.2742 4.12899 15.315C4.98043 16.3557 6.16573 17.0699 7.48376 17.3362C6.62599 17.5684 5.72669 17.6026 4.85376 17.4362C5.22564 18.5932 5.95001 19.605 6.92547 20.3299C7.90094 21.0548 9.07866 21.4564 10.2938 21.4787C8.23106 23.098 5.68362 23.9763 3.06126 23.9725C2.59674 23.9726 2.13261 23.9455 1.67126 23.8912C4.33311 25.6027 7.43169 26.511 10.5963 26.5075C21.3088 26.5075 27.165 17.635 27.165 9.93997C27.165 9.68997 27.1588 9.43747 27.1475 9.18747C28.2866 8.36369 29.2699 7.34359 30.0513 6.17497L30.0538 6.17122Z" fill="white"/>
</g>
<defs>
<clipPath id="clip0">
<rect width="30" height="30" fill="white" transform="translate(0.5)"/>
</clipPath>
</defs>
</svg>
