<svg width="20" height="20" viewBox="0 0 20 20" fill="none" xmlns="http://www.w3.org/2000/svg">
<path d="M9.99999 10.8335C11.3807 10.8335 12.5 9.71421 12.5 8.3335C12.5 6.95278 11.3807 5.8335 9.99999 5.8335C8.61928 5.8335 7.49999 6.95278 7.49999 8.3335C7.49999 9.71421 8.61928 10.8335 9.99999 10.8335Z" stroke="white" stroke-width="2.5" stroke-linecap="round" stroke-linejoin="round"/>
<path d="M9.99999 1.66675C8.23188 1.66675 6.53619 2.36913 5.28595 3.61937C4.03571 4.86961 3.33333 6.5653 3.33333 8.33342C3.33333 9.91008 3.66833 10.9417 4.58333 12.0834L9.99999 18.3334L15.4167 12.0834C16.3317 10.9417 16.6667 9.91008 16.6667 8.33342C16.6667 6.5653 15.9643 4.86961 14.714 3.61937C13.4638 2.36913 11.7681 1.66675 9.99999 1.66675V1.66675Z" stroke="white" stroke-width="2.5" stroke-linecap="round" stroke-linejoin="round"/>
</svg>
