<svg width="20" height="20" viewBox="0 0 20 20" fill="none" xmlns="http://www.w3.org/2000/svg">
<path d="M17.7778 3.33325H2.22223C1.92754 3.33325 1.64492 3.45032 1.43655 3.65869C1.22818 3.86706 1.11111 4.14968 1.11111 4.44436V15.5555C1.11111 15.8502 1.22818 16.1328 1.43655 16.3411C1.64492 16.5495 1.92754 16.6666 2.22223 16.6666H17.7778C18.0725 16.6666 18.3551 16.5495 18.5635 16.3411C18.7718 16.1328 18.8889 15.8502 18.8889 15.5555V4.44436C18.8889 4.14968 18.7718 3.86706 18.5635 3.65869C18.3551 3.45032 18.0725 3.33325 17.7778 3.33325ZM16.9222 15.5555H3.14445L7.03334 11.5333L6.23334 10.761L2.22223 14.911V5.28881L9.12778 12.161C9.33596 12.368 9.61757 12.4841 9.91111 12.4841C10.2047 12.4841 10.4863 12.368 10.6944 12.161L17.7778 5.11659V14.8388L13.6889 10.7499L12.9056 11.5333L16.9222 15.5555ZM2.95 4.44436H16.8778L9.91111 11.3721L2.95 4.44436Z" fill="white"/>
</svg>
