<?xml version="1.0" encoding="UTF-8"?>
<svg xmlns="http://www.w3.org/2000/svg" xmlns:xlink="http://www.w3.org/1999/xlink" width="37.5pt" height="37.499999pt" viewBox="0 0 37.5 37.499999" version="1.2">
<defs>
<clipPath id="clip1">
  <path d="M 0 0 L 37.007812 0 L 37.007812 37.007812 L 0 37.007812 Z M 0 0 "/>
</clipPath>
</defs>
<g id="surface1">
<path style=" stroke:none;fill-rule:nonzero;fill:rgb(27.839661%,32.548523%,70.979309%);fill-opacity:1;" d="M 36.816406 28.09375 L 36.816406 3.175781 C 36.816406 1.800781 35.699219 0.683594 34.324219 0.683594 L 3.175781 0.683594 C 1.800781 0.683594 0.683594 1.800781 0.683594 3.175781 L 0.683594 28.09375 C 0.683594 29.46875 1.800781 30.585938 3.175781 30.585938 L 13.144531 30.585938 L 10.027344 34.324219 L 3.800781 34.324219 L 0.683594 36.816406 L 36.816406 36.816406 L 33.699219 34.324219 L 27.472656 34.324219 L 24.355469 30.585938 L 34.324219 30.585938 C 35.699219 30.585938 36.816406 29.46875 36.816406 28.09375 Z M 3.175781 25.601562 L 3.175781 3.175781 L 34.324219 3.175781 L 34.324219 25.601562 Z M 3.175781 25.601562 "/>
<path style=" stroke:none;fill-rule:nonzero;fill:rgb(96.078491%,26.669312%,24.708557%);fill-opacity:1;" d="M 16.269531 5.710938 C 16.210938 5.71875 16.152344 5.726562 16.097656 5.738281 C 16.152344 5.726562 16.210938 5.71875 16.269531 5.710938 Z M 16.269531 5.710938 "/>
<path style=" stroke:none;fill-rule:nonzero;fill:rgb(100%,95.289612%,90.979004%);fill-opacity:1;" d="M 3.175781 3.175781 L 3.175781 25.601562 L 34.324219 25.601562 L 34.324219 3.175781 Z M 31.832031 8.160156 L 21.191406 8.160156 C 21.617188 8.894531 21.863281 9.742188 21.863281 10.652344 C 21.863281 13.402344 19.632812 15.636719 16.882812 15.636719 C 15.824219 15.636719 14.84375 15.304688 14.039062 14.742188 L 12.519531 16.257812 L 13.144531 16.882812 L 8.160156 21.863281 C 7.472656 22.554688 6.355469 22.554688 5.667969 21.863281 C 4.980469 21.175781 4.980469 20.0625 5.667969 19.371094 L 10.652344 14.390625 L 11.273438 15.011719 L 12.792969 13.496094 C 12.230469 12.6875 11.898438 11.710938 11.898438 10.652344 C 11.898438 9.742188 12.144531 8.894531 12.570312 8.160156 L 5.667969 8.160156 L 5.667969 5.667969 L 31.832031 5.667969 Z M 31.832031 8.160156 "/>
<path style=" stroke:none;fill-rule:nonzero;fill:rgb(96.078491%,26.669312%,24.708557%);fill-opacity:1;" d="M 17.496094 5.710938 C 17.550781 5.71875 17.609375 5.726562 17.664062 5.738281 C 17.609375 5.726562 17.550781 5.71875 17.496094 5.710938 Z M 17.496094 5.710938 "/>
<path style=" stroke:none;fill-rule:nonzero;fill:rgb(45.098877%,76.469421%,90.589905%);fill-opacity:1;" d="M 21.191406 8.160156 C 21.085938 7.980469 20.972656 7.804688 20.84375 7.640625 C 20.839844 7.632812 20.832031 7.625 20.828125 7.617188 C 20.574219 7.289062 20.277344 6.988281 19.953125 6.734375 C 19.933594 6.71875 19.917969 6.707031 19.902344 6.695312 C 19.757812 6.585938 19.609375 6.484375 19.457031 6.390625 C 19.425781 6.375 19.398438 6.355469 19.367188 6.339844 C 19.023438 6.140625 18.652344 5.980469 18.265625 5.867188 C 18.214844 5.855469 18.164062 5.84375 18.113281 5.828125 C 17.96875 5.792969 17.816406 5.761719 17.664062 5.738281 C 17.609375 5.726562 17.550781 5.71875 17.496094 5.710938 C 17.292969 5.683594 17.089844 5.667969 16.882812 5.667969 C 16.671875 5.667969 16.46875 5.683594 16.269531 5.710938 C 16.210938 5.71875 16.152344 5.726562 16.097656 5.738281 C 15.945312 5.761719 15.796875 5.792969 15.648438 5.828125 C 15.597656 5.839844 15.546875 5.851562 15.5 5.867188 C 15.109375 5.980469 14.738281 6.136719 14.394531 6.335938 C 14.367188 6.355469 14.335938 6.375 14.308594 6.390625 C 14.152344 6.484375 14.003906 6.585938 13.859375 6.695312 C 13.84375 6.707031 13.828125 6.71875 13.8125 6.730469 C 13.484375 6.988281 13.1875 7.285156 12.933594 7.617188 C 12.929688 7.625 12.921875 7.632812 12.917969 7.640625 C 12.792969 7.804688 12.675781 7.980469 12.570312 8.160156 C 12.144531 8.894531 11.898438 9.742188 11.898438 10.652344 C 11.898438 11.710938 12.230469 12.6875 12.792969 13.496094 L 11.273438 15.011719 L 12.519531 16.257812 L 14.039062 14.742188 C 14.84375 15.304688 15.824219 15.636719 16.882812 15.636719 C 19.632812 15.636719 21.863281 13.402344 21.863281 10.652344 C 21.863281 9.742188 21.617188 8.894531 21.191406 8.160156 Z M 21.191406 8.160156 "/>
<path style=" stroke:none;fill-rule:nonzero;fill:rgb(96.078491%,26.669312%,24.708557%);fill-opacity:1;" d="M 10.652344 14.390625 L 5.667969 19.371094 C 4.980469 20.0625 4.980469 21.175781 5.667969 21.863281 C 6.355469 22.554688 7.472656 22.554688 8.160156 21.863281 L 13.144531 16.882812 Z M 10.652344 14.390625 "/>
<path style=" stroke:none;fill-rule:nonzero;fill:rgb(96.078491%,26.669312%,24.708557%);fill-opacity:1;" d="M 12.933594 7.617188 C 13.191406 7.285156 13.484375 6.988281 13.8125 6.730469 C 13.828125 6.71875 13.84375 6.707031 13.859375 6.695312 C 14.003906 6.585938 14.152344 6.484375 14.308594 6.390625 C 14.335938 6.375 14.367188 6.355469 14.394531 6.335938 C 14.738281 6.140625 15.109375 5.980469 15.5 5.867188 C 15.546875 5.851562 15.597656 5.839844 15.648438 5.828125 C 15.796875 5.792969 15.945312 5.761719 16.097656 5.738281 C 16.152344 5.726562 16.210938 5.71875 16.269531 5.710938 C 16.46875 5.683594 16.671875 5.667969 16.882812 5.667969 L 5.667969 5.667969 L 5.667969 8.160156 L 12.570312 8.160156 C 12.675781 7.980469 12.792969 7.804688 12.917969 7.640625 C 12.921875 7.632812 12.929688 7.625 12.933594 7.617188 Z M 12.933594 7.617188 "/>
<path style=" stroke:none;fill-rule:nonzero;fill:rgb(96.078491%,26.669312%,24.708557%);fill-opacity:1;" d="M 16.882812 5.667969 C 16.671875 5.667969 16.46875 5.683594 16.269531 5.710938 C 16.46875 5.683594 16.671875 5.667969 16.882812 5.667969 Z M 16.882812 5.667969 "/>
<path style=" stroke:none;fill-rule:nonzero;fill:rgb(96.078491%,26.669312%,24.708557%);fill-opacity:1;" d="M 17.496094 5.710938 C 17.550781 5.71875 17.609375 5.726562 17.664062 5.738281 C 17.816406 5.761719 17.96875 5.792969 18.113281 5.828125 C 18.164062 5.839844 18.214844 5.851562 18.265625 5.867188 C 18.652344 5.980469 19.023438 6.140625 19.367188 6.335938 C 19.398438 6.355469 19.425781 6.375 19.457031 6.390625 C 19.609375 6.484375 19.757812 6.585938 19.902344 6.695312 C 19.917969 6.707031 19.933594 6.71875 19.949219 6.730469 C 20.277344 6.988281 20.574219 7.285156 20.828125 7.617188 C 20.832031 7.625 20.839844 7.632812 20.84375 7.640625 C 20.972656 7.804688 21.085938 7.976562 21.191406 8.160156 L 31.832031 8.160156 L 31.832031 5.667969 L 16.882812 5.667969 C 17.089844 5.667969 17.292969 5.683594 17.496094 5.710938 Z M 17.496094 5.710938 "/>
<path style=" stroke:none;fill-rule:nonzero;fill:rgb(96.078491%,26.669312%,24.708557%);fill-opacity:1;" d="M 16.882812 5.667969 C 17.089844 5.667969 17.292969 5.683594 17.496094 5.710938 C 17.292969 5.683594 17.089844 5.667969 16.882812 5.667969 Z M 16.882812 5.667969 "/>
<g clip-path="url(#clip1)" clip-rule="nonzero">
<path style=" stroke:none;fill-rule:nonzero;fill:rgb(0%,0%,0%);fill-opacity:1;" d="M 3.175781 31.207031 L 11.8125 31.207031 L 9.738281 33.699219 L 3.800781 33.699219 C 3.65625 33.699219 3.519531 33.75 3.410156 33.835938 L 0.296875 36.328125 C 0.0898438 36.492188 0.0117188 36.769531 0.0976562 37.019531 C 0.1875 37.269531 0.421875 37.4375 0.683594 37.4375 L 36.816406 37.4375 C 37.078125 37.4375 37.316406 37.269531 37.402344 37.019531 C 37.488281 36.769531 37.410156 36.492188 37.203125 36.328125 L 34.089844 33.835938 C 33.980469 33.75 33.84375 33.699219 33.699219 33.699219 L 27.761719 33.699219 L 25.6875 31.207031 L 34.324219 31.207031 C 36.039062 31.207031 37.4375 29.8125 37.4375 28.09375 L 37.4375 3.175781 C 37.4375 1.460938 36.039062 0.0625 34.324219 0.0625 L 3.175781 0.0625 C 1.460938 0.0625 0.0625 1.460938 0.0625 3.175781 L 0.0625 28.09375 C 0.0625 29.8125 1.460938 31.207031 3.175781 31.207031 Z M 35.039062 36.191406 L 2.460938 36.191406 L 4.019531 34.945312 L 33.480469 34.945312 Z M 26.140625 33.699219 L 11.359375 33.699219 L 13.4375 31.207031 L 24.066406 31.207031 Z M 1.308594 3.175781 C 1.308594 2.148438 2.148438 1.308594 3.175781 1.308594 L 34.324219 1.308594 C 35.351562 1.308594 36.191406 2.148438 36.191406 3.175781 L 36.191406 28.09375 C 36.191406 29.125 35.351562 29.960938 34.324219 29.960938 L 3.175781 29.960938 C 2.148438 29.960938 1.308594 29.125 1.308594 28.09375 Z M 1.308594 3.175781 "/>
</g>
<path style=" stroke:none;fill-rule:nonzero;fill:rgb(0%,0%,0%);fill-opacity:1;" d="M 3.175781 26.226562 L 34.324219 26.226562 C 34.667969 26.226562 34.945312 25.945312 34.945312 25.601562 L 34.945312 3.175781 C 34.945312 2.832031 34.667969 2.554688 34.324219 2.554688 L 3.175781 2.554688 C 2.832031 2.554688 2.554688 2.832031 2.554688 3.175781 L 2.554688 25.601562 C 2.554688 25.945312 2.832031 26.226562 3.175781 26.226562 Z M 3.800781 3.800781 L 33.699219 3.800781 L 33.699219 24.980469 L 3.800781 24.980469 Z M 3.800781 3.800781 "/>
<path style=" stroke:none;fill-rule:nonzero;fill:rgb(0%,0%,0%);fill-opacity:1;" d="M 15.636719 27.472656 L 21.863281 27.472656 L 21.863281 28.714844 L 15.636719 28.714844 Z M 15.636719 27.472656 "/>
<path style=" stroke:none;fill-rule:nonzero;fill:rgb(0%,0%,0%);fill-opacity:1;" d="M 13.144531 10.652344 L 14.390625 10.652344 C 14.390625 9.277344 15.507812 8.160156 16.882812 8.160156 L 16.882812 6.914062 C 14.820312 6.914062 13.144531 8.589844 13.144531 10.652344 Z M 13.144531 10.652344 "/>
<path style=" stroke:none;fill-rule:nonzero;fill:rgb(0%,0%,0%);fill-opacity:1;" d="M 31.832031 5.046875 L 5.667969 5.046875 C 5.324219 5.046875 5.046875 5.324219 5.046875 5.667969 L 5.046875 8.160156 C 5.046875 8.503906 5.324219 8.785156 5.667969 8.785156 L 11.601562 8.785156 C 11.394531 9.367188 11.273438 9.996094 11.273438 10.652344 C 11.273438 11.652344 11.542969 12.589844 12.003906 13.402344 L 11.273438 14.132812 L 11.09375 13.949219 C 10.847656 13.707031 10.457031 13.707031 10.210938 13.949219 L 5.226562 18.933594 C 4.296875 19.863281 4.296875 21.375 5.226562 22.304688 C 5.691406 22.769531 6.304688 23.003906 6.914062 23.003906 C 7.523438 23.003906 8.136719 22.769531 8.601562 22.304688 L 13.585938 17.320312 C 13.828125 17.078125 13.828125 16.683594 13.585938 16.441406 L 13.402344 16.257812 L 14.128906 15.53125 C 14.941406 15.992188 15.878906 16.257812 16.882812 16.257812 C 19.972656 16.257812 22.488281 13.742188 22.488281 10.652344 C 22.488281 9.996094 22.367188 9.367188 22.160156 8.785156 L 31.832031 8.785156 C 32.175781 8.785156 32.453125 8.503906 32.453125 8.160156 L 32.453125 5.667969 C 32.453125 5.324219 32.175781 5.046875 31.832031 5.046875 Z M 6.292969 7.539062 L 6.292969 6.292969 L 13.367188 6.292969 C 12.925781 6.648438 12.539062 7.066406 12.222656 7.539062 Z M 7.71875 21.425781 C 7.277344 21.867188 6.554688 21.867188 6.109375 21.425781 C 5.664062 20.980469 5.664062 20.257812 6.109375 19.8125 L 10.652344 15.269531 L 12.082031 16.699219 L 12.261719 16.882812 Z M 12.519531 15.378906 L 12.15625 15.011719 L 12.746094 14.421875 C 12.859375 14.550781 12.984375 14.671875 13.109375 14.789062 Z M 16.882812 15.011719 C 14.476562 15.011719 12.519531 13.054688 12.519531 10.652344 C 12.519531 8.246094 14.476562 6.292969 16.882812 6.292969 C 19.285156 6.292969 21.242188 8.246094 21.242188 10.652344 C 21.242188 13.054688 19.285156 15.011719 16.882812 15.011719 Z M 31.207031 7.539062 L 21.539062 7.539062 C 21.222656 7.066406 20.835938 6.648438 20.398438 6.292969 L 31.207031 6.292969 Z M 31.207031 7.539062 "/>
<path style=" stroke:none;fill-rule:nonzero;fill:rgb(0%,0%,0%);fill-opacity:1;" d="M 31.832031 11.273438 L 28.09375 11.273438 L 28.09375 12.519531 L 30.328125 12.519531 L 26.726562 16.125 L 24.636719 15.078125 C 24.410156 14.964844 24.132812 15 23.941406 15.167969 L 18.695312 19.832031 L 17.226562 18.855469 C 16.996094 18.699219 16.6875 18.71875 16.476562 18.898438 L 12.117188 22.636719 L 12.925781 23.582031 L 16.929688 20.152344 L 18.40625 21.136719 C 18.640625 21.292969 18.953125 21.273438 19.164062 21.085938 L 24.457031 16.382812 L 26.570312 17.4375 C 26.808594 17.558594 27.097656 17.511719 27.289062 17.320312 L 31.207031 13.402344 L 31.207031 15.636719 L 32.453125 15.636719 L 32.453125 11.898438 C 32.453125 11.554688 32.175781 11.273438 31.832031 11.273438 Z M 31.832031 11.273438 "/>
</g>
</svg>
