<?xml version="1.0" encoding="UTF-8"?>
<svg xmlns="http://www.w3.org/2000/svg" xmlns:xlink="http://www.w3.org/1999/xlink" width="37.5pt" height="37.499999pt" viewBox="0 0 37.5 37.499999" version="1.2">
<defs>
<clipPath id="clip1">
  <path d="M 0 0 L 37.007812 0 L 37.007812 37.007812 L 0 37.007812 Z M 0 0 "/>
</clipPath>
<clipPath id="clip2">
  <path d="M 8 7 L 29 7 L 29 37.007812 L 8 37.007812 Z M 8 7 "/>
</clipPath>
<clipPath id="clip3">
  <path d="M -0.00390625 18.742188 C -0.00390625 17.511719 0.117188 16.292969 0.355469 15.085938 C 0.597656 13.878906 0.953125 12.707031 1.421875 11.570312 C 1.894531 10.429688 2.472656 9.351562 3.15625 8.328125 C 3.839844 7.304688 4.617188 6.355469 5.488281 5.488281 C 6.355469 4.617188 7.304688 3.839844 8.328125 3.15625 C 9.351562 2.472656 10.429688 1.894531 11.570312 1.421875 C 12.707031 0.953125 13.878906 0.597656 15.085938 0.355469 C 16.292969 0.117188 17.511719 -0.00390625 18.742188 -0.00390625 C 19.972656 -0.00390625 21.191406 0.117188 22.402344 0.355469 C 23.609375 0.597656 24.78125 0.953125 25.917969 1.421875 C 27.054688 1.894531 28.136719 2.472656 29.160156 3.15625 C 30.183594 3.839844 31.128906 4.617188 32 5.488281 C 32.871094 6.355469 33.648438 7.304688 34.332031 8.328125 C 35.015625 9.351562 35.59375 10.429688 36.0625 11.570312 C 36.535156 12.707031 36.890625 13.878906 37.128906 15.085938 C 37.371094 16.292969 37.492188 17.511719 37.492188 18.742188 C 37.492188 19.972656 37.371094 21.191406 37.128906 22.402344 C 36.890625 23.609375 36.535156 24.78125 36.0625 25.917969 C 35.59375 27.054688 35.015625 28.136719 34.332031 29.160156 C 33.648438 30.183594 32.871094 31.128906 32 32 C 31.128906 32.871094 30.183594 33.648438 29.160156 34.332031 C 28.136719 35.015625 27.054688 35.59375 25.917969 36.0625 C 24.78125 36.535156 23.609375 36.890625 22.402344 37.128906 C 21.191406 37.371094 19.972656 37.492188 18.742188 37.492188 C 17.511719 37.492188 16.292969 37.371094 15.085938 37.128906 C 13.878906 36.890625 12.707031 36.535156 11.570312 36.0625 C 10.429688 35.59375 9.351562 35.015625 8.328125 34.332031 C 7.304688 33.648438 6.355469 32.871094 5.488281 32 C 4.617188 31.128906 3.839844 30.183594 3.15625 29.160156 C 2.472656 28.136719 1.894531 27.054688 1.421875 25.917969 C 0.953125 24.78125 0.597656 23.609375 0.355469 22.402344 C 0.117188 21.191406 -0.00390625 19.972656 -0.00390625 18.742188 Z M -0.00390625 18.742188 "/>
</clipPath>
<clipPath id="clip4">
  <path d="M 8 7 L 12 7 L 12 37.007812 L 8 37.007812 Z M 8 7 "/>
</clipPath>
<clipPath id="clip5">
  <path d="M -0.00390625 18.742188 C -0.00390625 17.511719 0.117188 16.292969 0.355469 15.085938 C 0.597656 13.878906 0.953125 12.707031 1.421875 11.570312 C 1.894531 10.429688 2.472656 9.351562 3.15625 8.328125 C 3.839844 7.304688 4.617188 6.355469 5.488281 5.488281 C 6.355469 4.617188 7.304688 3.839844 8.328125 3.15625 C 9.351562 2.472656 10.429688 1.894531 11.570312 1.421875 C 12.707031 0.953125 13.878906 0.597656 15.085938 0.355469 C 16.292969 0.117188 17.511719 -0.00390625 18.742188 -0.00390625 C 19.972656 -0.00390625 21.191406 0.117188 22.402344 0.355469 C 23.609375 0.597656 24.78125 0.953125 25.917969 1.421875 C 27.054688 1.894531 28.136719 2.472656 29.160156 3.15625 C 30.183594 3.839844 31.128906 4.617188 32 5.488281 C 32.871094 6.355469 33.648438 7.304688 34.332031 8.328125 C 35.015625 9.351562 35.59375 10.429688 36.0625 11.570312 C 36.535156 12.707031 36.890625 13.878906 37.128906 15.085938 C 37.371094 16.292969 37.492188 17.511719 37.492188 18.742188 C 37.492188 19.972656 37.371094 21.191406 37.128906 22.402344 C 36.890625 23.609375 36.535156 24.78125 36.0625 25.917969 C 35.59375 27.054688 35.015625 28.136719 34.332031 29.160156 C 33.648438 30.183594 32.871094 31.128906 32 32 C 31.128906 32.871094 30.183594 33.648438 29.160156 34.332031 C 28.136719 35.015625 27.054688 35.59375 25.917969 36.0625 C 24.78125 36.535156 23.609375 36.890625 22.402344 37.128906 C 21.191406 37.371094 19.972656 37.492188 18.742188 37.492188 C 17.511719 37.492188 16.292969 37.371094 15.085938 37.128906 C 13.878906 36.890625 12.707031 36.535156 11.570312 36.0625 C 10.429688 35.59375 9.351562 35.015625 8.328125 34.332031 C 7.304688 33.648438 6.355469 32.871094 5.488281 32 C 4.617188 31.128906 3.839844 30.183594 3.15625 29.160156 C 2.472656 28.136719 1.894531 27.054688 1.421875 25.917969 C 0.953125 24.78125 0.597656 23.609375 0.355469 22.402344 C 0.117188 21.191406 -0.00390625 19.972656 -0.00390625 18.742188 Z M -0.00390625 18.742188 "/>
</clipPath>
<clipPath id="clip6">
  <path d="M 9 14 L 15 14 L 15 19 L 9 19 Z M 9 14 "/>
</clipPath>
<clipPath id="clip7">
  <path d="M -0.00390625 18.742188 C -0.00390625 17.511719 0.117188 16.292969 0.355469 15.085938 C 0.597656 13.878906 0.953125 12.707031 1.421875 11.570312 C 1.894531 10.429688 2.472656 9.351562 3.15625 8.328125 C 3.839844 7.304688 4.617188 6.355469 5.488281 5.488281 C 6.355469 4.617188 7.304688 3.839844 8.328125 3.15625 C 9.351562 2.472656 10.429688 1.894531 11.570312 1.421875 C 12.707031 0.953125 13.878906 0.597656 15.085938 0.355469 C 16.292969 0.117188 17.511719 -0.00390625 18.742188 -0.00390625 C 19.972656 -0.00390625 21.191406 0.117188 22.402344 0.355469 C 23.609375 0.597656 24.78125 0.953125 25.917969 1.421875 C 27.054688 1.894531 28.136719 2.472656 29.160156 3.15625 C 30.183594 3.839844 31.128906 4.617188 32 5.488281 C 32.871094 6.355469 33.648438 7.304688 34.332031 8.328125 C 35.015625 9.351562 35.59375 10.429688 36.0625 11.570312 C 36.535156 12.707031 36.890625 13.878906 37.128906 15.085938 C 37.371094 16.292969 37.492188 17.511719 37.492188 18.742188 C 37.492188 19.972656 37.371094 21.191406 37.128906 22.402344 C 36.890625 23.609375 36.535156 24.78125 36.0625 25.917969 C 35.59375 27.054688 35.015625 28.136719 34.332031 29.160156 C 33.648438 30.183594 32.871094 31.128906 32 32 C 31.128906 32.871094 30.183594 33.648438 29.160156 34.332031 C 28.136719 35.015625 27.054688 35.59375 25.917969 36.0625 C 24.78125 36.535156 23.609375 36.890625 22.402344 37.128906 C 21.191406 37.371094 19.972656 37.492188 18.742188 37.492188 C 17.511719 37.492188 16.292969 37.371094 15.085938 37.128906 C 13.878906 36.890625 12.707031 36.535156 11.570312 36.0625 C 10.429688 35.59375 9.351562 35.015625 8.328125 34.332031 C 7.304688 33.648438 6.355469 32.871094 5.488281 32 C 4.617188 31.128906 3.839844 30.183594 3.15625 29.160156 C 2.472656 28.136719 1.894531 27.054688 1.421875 25.917969 C 0.953125 24.78125 0.597656 23.609375 0.355469 22.402344 C 0.117188 21.191406 -0.00390625 19.972656 -0.00390625 18.742188 Z M -0.00390625 18.742188 "/>
</clipPath>
<clipPath id="clip8">
  <path d="M 10 9 L 28 9 L 28 13 L 10 13 Z M 10 9 "/>
</clipPath>
<clipPath id="clip9">
  <path d="M -0.00390625 18.742188 C -0.00390625 17.511719 0.117188 16.292969 0.355469 15.085938 C 0.597656 13.878906 0.953125 12.707031 1.421875 11.570312 C 1.894531 10.429688 2.472656 9.351562 3.15625 8.328125 C 3.839844 7.304688 4.617188 6.355469 5.488281 5.488281 C 6.355469 4.617188 7.304688 3.839844 8.328125 3.15625 C 9.351562 2.472656 10.429688 1.894531 11.570312 1.421875 C 12.707031 0.953125 13.878906 0.597656 15.085938 0.355469 C 16.292969 0.117188 17.511719 -0.00390625 18.742188 -0.00390625 C 19.972656 -0.00390625 21.191406 0.117188 22.402344 0.355469 C 23.609375 0.597656 24.78125 0.953125 25.917969 1.421875 C 27.054688 1.894531 28.136719 2.472656 29.160156 3.15625 C 30.183594 3.839844 31.128906 4.617188 32 5.488281 C 32.871094 6.355469 33.648438 7.304688 34.332031 8.328125 C 35.015625 9.351562 35.59375 10.429688 36.0625 11.570312 C 36.535156 12.707031 36.890625 13.878906 37.128906 15.085938 C 37.371094 16.292969 37.492188 17.511719 37.492188 18.742188 C 37.492188 19.972656 37.371094 21.191406 37.128906 22.402344 C 36.890625 23.609375 36.535156 24.78125 36.0625 25.917969 C 35.59375 27.054688 35.015625 28.136719 34.332031 29.160156 C 33.648438 30.183594 32.871094 31.128906 32 32 C 31.128906 32.871094 30.183594 33.648438 29.160156 34.332031 C 28.136719 35.015625 27.054688 35.59375 25.917969 36.0625 C 24.78125 36.535156 23.609375 36.890625 22.402344 37.128906 C 21.191406 37.371094 19.972656 37.492188 18.742188 37.492188 C 17.511719 37.492188 16.292969 37.371094 15.085938 37.128906 C 13.878906 36.890625 12.707031 36.535156 11.570312 36.0625 C 10.429688 35.59375 9.351562 35.015625 8.328125 34.332031 C 7.304688 33.648438 6.355469 32.871094 5.488281 32 C 4.617188 31.128906 3.839844 30.183594 3.15625 29.160156 C 2.472656 28.136719 1.894531 27.054688 1.421875 25.917969 C 0.953125 24.78125 0.597656 23.609375 0.355469 22.402344 C 0.117188 21.191406 -0.00390625 19.972656 -0.00390625 18.742188 Z M -0.00390625 18.742188 "/>
</clipPath>
<clipPath id="clip10">
  <path d="M 10 15 L 14 15 L 14 19 L 10 19 Z M 10 15 "/>
</clipPath>
<clipPath id="clip11">
  <path d="M -0.00390625 18.742188 C -0.00390625 17.511719 0.117188 16.292969 0.355469 15.085938 C 0.597656 13.878906 0.953125 12.707031 1.421875 11.570312 C 1.894531 10.429688 2.472656 9.351562 3.15625 8.328125 C 3.839844 7.304688 4.617188 6.355469 5.488281 5.488281 C 6.355469 4.617188 7.304688 3.839844 8.328125 3.15625 C 9.351562 2.472656 10.429688 1.894531 11.570312 1.421875 C 12.707031 0.953125 13.878906 0.597656 15.085938 0.355469 C 16.292969 0.117188 17.511719 -0.00390625 18.742188 -0.00390625 C 19.972656 -0.00390625 21.191406 0.117188 22.402344 0.355469 C 23.609375 0.597656 24.78125 0.953125 25.917969 1.421875 C 27.054688 1.894531 28.136719 2.472656 29.160156 3.15625 C 30.183594 3.839844 31.128906 4.617188 32 5.488281 C 32.871094 6.355469 33.648438 7.304688 34.332031 8.328125 C 35.015625 9.351562 35.59375 10.429688 36.0625 11.570312 C 36.535156 12.707031 36.890625 13.878906 37.128906 15.085938 C 37.371094 16.292969 37.492188 17.511719 37.492188 18.742188 C 37.492188 19.972656 37.371094 21.191406 37.128906 22.402344 C 36.890625 23.609375 36.535156 24.78125 36.0625 25.917969 C 35.59375 27.054688 35.015625 28.136719 34.332031 29.160156 C 33.648438 30.183594 32.871094 31.128906 32 32 C 31.128906 32.871094 30.183594 33.648438 29.160156 34.332031 C 28.136719 35.015625 27.054688 35.59375 25.917969 36.0625 C 24.78125 36.535156 23.609375 36.890625 22.402344 37.128906 C 21.191406 37.371094 19.972656 37.492188 18.742188 37.492188 C 17.511719 37.492188 16.292969 37.371094 15.085938 37.128906 C 13.878906 36.890625 12.707031 36.535156 11.570312 36.0625 C 10.429688 35.59375 9.351562 35.015625 8.328125 34.332031 C 7.304688 33.648438 6.355469 32.871094 5.488281 32 C 4.617188 31.128906 3.839844 30.183594 3.15625 29.160156 C 2.472656 28.136719 1.894531 27.054688 1.421875 25.917969 C 0.953125 24.78125 0.597656 23.609375 0.355469 22.402344 C 0.117188 21.191406 -0.00390625 19.972656 -0.00390625 18.742188 Z M -0.00390625 18.742188 "/>
</clipPath>
<clipPath id="clip12">
  <path d="M 9 20 L 15 20 L 15 25 L 9 25 Z M 9 20 "/>
</clipPath>
<clipPath id="clip13">
  <path d="M -0.00390625 18.742188 C -0.00390625 17.511719 0.117188 16.292969 0.355469 15.085938 C 0.597656 13.878906 0.953125 12.707031 1.421875 11.570312 C 1.894531 10.429688 2.472656 9.351562 3.15625 8.328125 C 3.839844 7.304688 4.617188 6.355469 5.488281 5.488281 C 6.355469 4.617188 7.304688 3.839844 8.328125 3.15625 C 9.351562 2.472656 10.429688 1.894531 11.570312 1.421875 C 12.707031 0.953125 13.878906 0.597656 15.085938 0.355469 C 16.292969 0.117188 17.511719 -0.00390625 18.742188 -0.00390625 C 19.972656 -0.00390625 21.191406 0.117188 22.402344 0.355469 C 23.609375 0.597656 24.78125 0.953125 25.917969 1.421875 C 27.054688 1.894531 28.136719 2.472656 29.160156 3.15625 C 30.183594 3.839844 31.128906 4.617188 32 5.488281 C 32.871094 6.355469 33.648438 7.304688 34.332031 8.328125 C 35.015625 9.351562 35.59375 10.429688 36.0625 11.570312 C 36.535156 12.707031 36.890625 13.878906 37.128906 15.085938 C 37.371094 16.292969 37.492188 17.511719 37.492188 18.742188 C 37.492188 19.972656 37.371094 21.191406 37.128906 22.402344 C 36.890625 23.609375 36.535156 24.78125 36.0625 25.917969 C 35.59375 27.054688 35.015625 28.136719 34.332031 29.160156 C 33.648438 30.183594 32.871094 31.128906 32 32 C 31.128906 32.871094 30.183594 33.648438 29.160156 34.332031 C 28.136719 35.015625 27.054688 35.59375 25.917969 36.0625 C 24.78125 36.535156 23.609375 36.890625 22.402344 37.128906 C 21.191406 37.371094 19.972656 37.492188 18.742188 37.492188 C 17.511719 37.492188 16.292969 37.371094 15.085938 37.128906 C 13.878906 36.890625 12.707031 36.535156 11.570312 36.0625 C 10.429688 35.59375 9.351562 35.015625 8.328125 34.332031 C 7.304688 33.648438 6.355469 32.871094 5.488281 32 C 4.617188 31.128906 3.839844 30.183594 3.15625 29.160156 C 2.472656 28.136719 1.894531 27.054688 1.421875 25.917969 C 0.953125 24.78125 0.597656 23.609375 0.355469 22.402344 C 0.117188 21.191406 -0.00390625 19.972656 -0.00390625 18.742188 Z M -0.00390625 18.742188 "/>
</clipPath>
<clipPath id="clip14">
  <path d="M 10 20 L 14 20 L 14 24 L 10 24 Z M 10 20 "/>
</clipPath>
<clipPath id="clip15">
  <path d="M -0.00390625 18.742188 C -0.00390625 17.511719 0.117188 16.292969 0.355469 15.085938 C 0.597656 13.878906 0.953125 12.707031 1.421875 11.570312 C 1.894531 10.429688 2.472656 9.351562 3.15625 8.328125 C 3.839844 7.304688 4.617188 6.355469 5.488281 5.488281 C 6.355469 4.617188 7.304688 3.839844 8.328125 3.15625 C 9.351562 2.472656 10.429688 1.894531 11.570312 1.421875 C 12.707031 0.953125 13.878906 0.597656 15.085938 0.355469 C 16.292969 0.117188 17.511719 -0.00390625 18.742188 -0.00390625 C 19.972656 -0.00390625 21.191406 0.117188 22.402344 0.355469 C 23.609375 0.597656 24.78125 0.953125 25.917969 1.421875 C 27.054688 1.894531 28.136719 2.472656 29.160156 3.15625 C 30.183594 3.839844 31.128906 4.617188 32 5.488281 C 32.871094 6.355469 33.648438 7.304688 34.332031 8.328125 C 35.015625 9.351562 35.59375 10.429688 36.0625 11.570312 C 36.535156 12.707031 36.890625 13.878906 37.128906 15.085938 C 37.371094 16.292969 37.492188 17.511719 37.492188 18.742188 C 37.492188 19.972656 37.371094 21.191406 37.128906 22.402344 C 36.890625 23.609375 36.535156 24.78125 36.0625 25.917969 C 35.59375 27.054688 35.015625 28.136719 34.332031 29.160156 C 33.648438 30.183594 32.871094 31.128906 32 32 C 31.128906 32.871094 30.183594 33.648438 29.160156 34.332031 C 28.136719 35.015625 27.054688 35.59375 25.917969 36.0625 C 24.78125 36.535156 23.609375 36.890625 22.402344 37.128906 C 21.191406 37.371094 19.972656 37.492188 18.742188 37.492188 C 17.511719 37.492188 16.292969 37.371094 15.085938 37.128906 C 13.878906 36.890625 12.707031 36.535156 11.570312 36.0625 C 10.429688 35.59375 9.351562 35.015625 8.328125 34.332031 C 7.304688 33.648438 6.355469 32.871094 5.488281 32 C 4.617188 31.128906 3.839844 30.183594 3.15625 29.160156 C 2.472656 28.136719 1.894531 27.054688 1.421875 25.917969 C 0.953125 24.78125 0.597656 23.609375 0.355469 22.402344 C 0.117188 21.191406 -0.00390625 19.972656 -0.00390625 18.742188 Z M -0.00390625 18.742188 "/>
</clipPath>
<clipPath id="clip16">
  <path d="M 9 26 L 15 26 L 15 31 L 9 31 Z M 9 26 "/>
</clipPath>
<clipPath id="clip17">
  <path d="M -0.00390625 18.742188 C -0.00390625 17.511719 0.117188 16.292969 0.355469 15.085938 C 0.597656 13.878906 0.953125 12.707031 1.421875 11.570312 C 1.894531 10.429688 2.472656 9.351562 3.15625 8.328125 C 3.839844 7.304688 4.617188 6.355469 5.488281 5.488281 C 6.355469 4.617188 7.304688 3.839844 8.328125 3.15625 C 9.351562 2.472656 10.429688 1.894531 11.570312 1.421875 C 12.707031 0.953125 13.878906 0.597656 15.085938 0.355469 C 16.292969 0.117188 17.511719 -0.00390625 18.742188 -0.00390625 C 19.972656 -0.00390625 21.191406 0.117188 22.402344 0.355469 C 23.609375 0.597656 24.78125 0.953125 25.917969 1.421875 C 27.054688 1.894531 28.136719 2.472656 29.160156 3.15625 C 30.183594 3.839844 31.128906 4.617188 32 5.488281 C 32.871094 6.355469 33.648438 7.304688 34.332031 8.328125 C 35.015625 9.351562 35.59375 10.429688 36.0625 11.570312 C 36.535156 12.707031 36.890625 13.878906 37.128906 15.085938 C 37.371094 16.292969 37.492188 17.511719 37.492188 18.742188 C 37.492188 19.972656 37.371094 21.191406 37.128906 22.402344 C 36.890625 23.609375 36.535156 24.78125 36.0625 25.917969 C 35.59375 27.054688 35.015625 28.136719 34.332031 29.160156 C 33.648438 30.183594 32.871094 31.128906 32 32 C 31.128906 32.871094 30.183594 33.648438 29.160156 34.332031 C 28.136719 35.015625 27.054688 35.59375 25.917969 36.0625 C 24.78125 36.535156 23.609375 36.890625 22.402344 37.128906 C 21.191406 37.371094 19.972656 37.492188 18.742188 37.492188 C 17.511719 37.492188 16.292969 37.371094 15.085938 37.128906 C 13.878906 36.890625 12.707031 36.535156 11.570312 36.0625 C 10.429688 35.59375 9.351562 35.015625 8.328125 34.332031 C 7.304688 33.648438 6.355469 32.871094 5.488281 32 C 4.617188 31.128906 3.839844 30.183594 3.15625 29.160156 C 2.472656 28.136719 1.894531 27.054688 1.421875 25.917969 C 0.953125 24.78125 0.597656 23.609375 0.355469 22.402344 C 0.117188 21.191406 -0.00390625 19.972656 -0.00390625 18.742188 Z M -0.00390625 18.742188 "/>
</clipPath>
<clipPath id="clip18">
  <path d="M 10 26 L 14 26 L 14 30 L 10 30 Z M 10 26 "/>
</clipPath>
<clipPath id="clip19">
  <path d="M -0.00390625 18.742188 C -0.00390625 17.511719 0.117188 16.292969 0.355469 15.085938 C 0.597656 13.878906 0.953125 12.707031 1.421875 11.570312 C 1.894531 10.429688 2.472656 9.351562 3.15625 8.328125 C 3.839844 7.304688 4.617188 6.355469 5.488281 5.488281 C 6.355469 4.617188 7.304688 3.839844 8.328125 3.15625 C 9.351562 2.472656 10.429688 1.894531 11.570312 1.421875 C 12.707031 0.953125 13.878906 0.597656 15.085938 0.355469 C 16.292969 0.117188 17.511719 -0.00390625 18.742188 -0.00390625 C 19.972656 -0.00390625 21.191406 0.117188 22.402344 0.355469 C 23.609375 0.597656 24.78125 0.953125 25.917969 1.421875 C 27.054688 1.894531 28.136719 2.472656 29.160156 3.15625 C 30.183594 3.839844 31.128906 4.617188 32 5.488281 C 32.871094 6.355469 33.648438 7.304688 34.332031 8.328125 C 35.015625 9.351562 35.59375 10.429688 36.0625 11.570312 C 36.535156 12.707031 36.890625 13.878906 37.128906 15.085938 C 37.371094 16.292969 37.492188 17.511719 37.492188 18.742188 C 37.492188 19.972656 37.371094 21.191406 37.128906 22.402344 C 36.890625 23.609375 36.535156 24.78125 36.0625 25.917969 C 35.59375 27.054688 35.015625 28.136719 34.332031 29.160156 C 33.648438 30.183594 32.871094 31.128906 32 32 C 31.128906 32.871094 30.183594 33.648438 29.160156 34.332031 C 28.136719 35.015625 27.054688 35.59375 25.917969 36.0625 C 24.78125 36.535156 23.609375 36.890625 22.402344 37.128906 C 21.191406 37.371094 19.972656 37.492188 18.742188 37.492188 C 17.511719 37.492188 16.292969 37.371094 15.085938 37.128906 C 13.878906 36.890625 12.707031 36.535156 11.570312 36.0625 C 10.429688 35.59375 9.351562 35.015625 8.328125 34.332031 C 7.304688 33.648438 6.355469 32.871094 5.488281 32 C 4.617188 31.128906 3.839844 30.183594 3.15625 29.160156 C 2.472656 28.136719 1.894531 27.054688 1.421875 25.917969 C 0.953125 24.78125 0.597656 23.609375 0.355469 22.402344 C 0.117188 21.191406 -0.00390625 19.972656 -0.00390625 18.742188 Z M -0.00390625 18.742188 "/>
</clipPath>
<clipPath id="clip20">
  <path d="M 9 31 L 15 31 L 15 37 L 9 37 Z M 9 31 "/>
</clipPath>
<clipPath id="clip21">
  <path d="M -0.00390625 18.742188 C -0.00390625 17.511719 0.117188 16.292969 0.355469 15.085938 C 0.597656 13.878906 0.953125 12.707031 1.421875 11.570312 C 1.894531 10.429688 2.472656 9.351562 3.15625 8.328125 C 3.839844 7.304688 4.617188 6.355469 5.488281 5.488281 C 6.355469 4.617188 7.304688 3.839844 8.328125 3.15625 C 9.351562 2.472656 10.429688 1.894531 11.570312 1.421875 C 12.707031 0.953125 13.878906 0.597656 15.085938 0.355469 C 16.292969 0.117188 17.511719 -0.00390625 18.742188 -0.00390625 C 19.972656 -0.00390625 21.191406 0.117188 22.402344 0.355469 C 23.609375 0.597656 24.78125 0.953125 25.917969 1.421875 C 27.054688 1.894531 28.136719 2.472656 29.160156 3.15625 C 30.183594 3.839844 31.128906 4.617188 32 5.488281 C 32.871094 6.355469 33.648438 7.304688 34.332031 8.328125 C 35.015625 9.351562 35.59375 10.429688 36.0625 11.570312 C 36.535156 12.707031 36.890625 13.878906 37.128906 15.085938 C 37.371094 16.292969 37.492188 17.511719 37.492188 18.742188 C 37.492188 19.972656 37.371094 21.191406 37.128906 22.402344 C 36.890625 23.609375 36.535156 24.78125 36.0625 25.917969 C 35.59375 27.054688 35.015625 28.136719 34.332031 29.160156 C 33.648438 30.183594 32.871094 31.128906 32 32 C 31.128906 32.871094 30.183594 33.648438 29.160156 34.332031 C 28.136719 35.015625 27.054688 35.59375 25.917969 36.0625 C 24.78125 36.535156 23.609375 36.890625 22.402344 37.128906 C 21.191406 37.371094 19.972656 37.492188 18.742188 37.492188 C 17.511719 37.492188 16.292969 37.371094 15.085938 37.128906 C 13.878906 36.890625 12.707031 36.535156 11.570312 36.0625 C 10.429688 35.59375 9.351562 35.015625 8.328125 34.332031 C 7.304688 33.648438 6.355469 32.871094 5.488281 32 C 4.617188 31.128906 3.839844 30.183594 3.15625 29.160156 C 2.472656 28.136719 1.894531 27.054688 1.421875 25.917969 C 0.953125 24.78125 0.597656 23.609375 0.355469 22.402344 C 0.117188 21.191406 -0.00390625 19.972656 -0.00390625 18.742188 Z M -0.00390625 18.742188 "/>
</clipPath>
<clipPath id="clip22">
  <path d="M 10 32 L 14 32 L 14 36 L 10 36 Z M 10 32 "/>
</clipPath>
<clipPath id="clip23">
  <path d="M -0.00390625 18.742188 C -0.00390625 17.511719 0.117188 16.292969 0.355469 15.085938 C 0.597656 13.878906 0.953125 12.707031 1.421875 11.570312 C 1.894531 10.429688 2.472656 9.351562 3.15625 8.328125 C 3.839844 7.304688 4.617188 6.355469 5.488281 5.488281 C 6.355469 4.617188 7.304688 3.839844 8.328125 3.15625 C 9.351562 2.472656 10.429688 1.894531 11.570312 1.421875 C 12.707031 0.953125 13.878906 0.597656 15.085938 0.355469 C 16.292969 0.117188 17.511719 -0.00390625 18.742188 -0.00390625 C 19.972656 -0.00390625 21.191406 0.117188 22.402344 0.355469 C 23.609375 0.597656 24.78125 0.953125 25.917969 1.421875 C 27.054688 1.894531 28.136719 2.472656 29.160156 3.15625 C 30.183594 3.839844 31.128906 4.617188 32 5.488281 C 32.871094 6.355469 33.648438 7.304688 34.332031 8.328125 C 35.015625 9.351562 35.59375 10.429688 36.0625 11.570312 C 36.535156 12.707031 36.890625 13.878906 37.128906 15.085938 C 37.371094 16.292969 37.492188 17.511719 37.492188 18.742188 C 37.492188 19.972656 37.371094 21.191406 37.128906 22.402344 C 36.890625 23.609375 36.535156 24.78125 36.0625 25.917969 C 35.59375 27.054688 35.015625 28.136719 34.332031 29.160156 C 33.648438 30.183594 32.871094 31.128906 32 32 C 31.128906 32.871094 30.183594 33.648438 29.160156 34.332031 C 28.136719 35.015625 27.054688 35.59375 25.917969 36.0625 C 24.78125 36.535156 23.609375 36.890625 22.402344 37.128906 C 21.191406 37.371094 19.972656 37.492188 18.742188 37.492188 C 17.511719 37.492188 16.292969 37.371094 15.085938 37.128906 C 13.878906 36.890625 12.707031 36.535156 11.570312 36.0625 C 10.429688 35.59375 9.351562 35.015625 8.328125 34.332031 C 7.304688 33.648438 6.355469 32.871094 5.488281 32 C 4.617188 31.128906 3.839844 30.183594 3.15625 29.160156 C 2.472656 28.136719 1.894531 27.054688 1.421875 25.917969 C 0.953125 24.78125 0.597656 23.609375 0.355469 22.402344 C 0.117188 21.191406 -0.00390625 19.972656 -0.00390625 18.742188 Z M -0.00390625 18.742188 "/>
</clipPath>
<clipPath id="clip24">
  <path d="M 15 15 L 28 15 L 28 17 L 15 17 Z M 15 15 "/>
</clipPath>
<clipPath id="clip25">
  <path d="M -0.00390625 18.742188 C -0.00390625 17.511719 0.117188 16.292969 0.355469 15.085938 C 0.597656 13.878906 0.953125 12.707031 1.421875 11.570312 C 1.894531 10.429688 2.472656 9.351562 3.15625 8.328125 C 3.839844 7.304688 4.617188 6.355469 5.488281 5.488281 C 6.355469 4.617188 7.304688 3.839844 8.328125 3.15625 C 9.351562 2.472656 10.429688 1.894531 11.570312 1.421875 C 12.707031 0.953125 13.878906 0.597656 15.085938 0.355469 C 16.292969 0.117188 17.511719 -0.00390625 18.742188 -0.00390625 C 19.972656 -0.00390625 21.191406 0.117188 22.402344 0.355469 C 23.609375 0.597656 24.78125 0.953125 25.917969 1.421875 C 27.054688 1.894531 28.136719 2.472656 29.160156 3.15625 C 30.183594 3.839844 31.128906 4.617188 32 5.488281 C 32.871094 6.355469 33.648438 7.304688 34.332031 8.328125 C 35.015625 9.351562 35.59375 10.429688 36.0625 11.570312 C 36.535156 12.707031 36.890625 13.878906 37.128906 15.085938 C 37.371094 16.292969 37.492188 17.511719 37.492188 18.742188 C 37.492188 19.972656 37.371094 21.191406 37.128906 22.402344 C 36.890625 23.609375 36.535156 24.78125 36.0625 25.917969 C 35.59375 27.054688 35.015625 28.136719 34.332031 29.160156 C 33.648438 30.183594 32.871094 31.128906 32 32 C 31.128906 32.871094 30.183594 33.648438 29.160156 34.332031 C 28.136719 35.015625 27.054688 35.59375 25.917969 36.0625 C 24.78125 36.535156 23.609375 36.890625 22.402344 37.128906 C 21.191406 37.371094 19.972656 37.492188 18.742188 37.492188 C 17.511719 37.492188 16.292969 37.371094 15.085938 37.128906 C 13.878906 36.890625 12.707031 36.535156 11.570312 36.0625 C 10.429688 35.59375 9.351562 35.015625 8.328125 34.332031 C 7.304688 33.648438 6.355469 32.871094 5.488281 32 C 4.617188 31.128906 3.839844 30.183594 3.15625 29.160156 C 2.472656 28.136719 1.894531 27.054688 1.421875 25.917969 C 0.953125 24.78125 0.597656 23.609375 0.355469 22.402344 C 0.117188 21.191406 -0.00390625 19.972656 -0.00390625 18.742188 Z M -0.00390625 18.742188 "/>
</clipPath>
<clipPath id="clip26">
  <path d="M 15 16 L 28 16 L 28 18 L 15 18 Z M 15 16 "/>
</clipPath>
<clipPath id="clip27">
  <path d="M -0.00390625 18.742188 C -0.00390625 17.511719 0.117188 16.292969 0.355469 15.085938 C 0.597656 13.878906 0.953125 12.707031 1.421875 11.570312 C 1.894531 10.429688 2.472656 9.351562 3.15625 8.328125 C 3.839844 7.304688 4.617188 6.355469 5.488281 5.488281 C 6.355469 4.617188 7.304688 3.839844 8.328125 3.15625 C 9.351562 2.472656 10.429688 1.894531 11.570312 1.421875 C 12.707031 0.953125 13.878906 0.597656 15.085938 0.355469 C 16.292969 0.117188 17.511719 -0.00390625 18.742188 -0.00390625 C 19.972656 -0.00390625 21.191406 0.117188 22.402344 0.355469 C 23.609375 0.597656 24.78125 0.953125 25.917969 1.421875 C 27.054688 1.894531 28.136719 2.472656 29.160156 3.15625 C 30.183594 3.839844 31.128906 4.617188 32 5.488281 C 32.871094 6.355469 33.648438 7.304688 34.332031 8.328125 C 35.015625 9.351562 35.59375 10.429688 36.0625 11.570312 C 36.535156 12.707031 36.890625 13.878906 37.128906 15.085938 C 37.371094 16.292969 37.492188 17.511719 37.492188 18.742188 C 37.492188 19.972656 37.371094 21.191406 37.128906 22.402344 C 36.890625 23.609375 36.535156 24.78125 36.0625 25.917969 C 35.59375 27.054688 35.015625 28.136719 34.332031 29.160156 C 33.648438 30.183594 32.871094 31.128906 32 32 C 31.128906 32.871094 30.183594 33.648438 29.160156 34.332031 C 28.136719 35.015625 27.054688 35.59375 25.917969 36.0625 C 24.78125 36.535156 23.609375 36.890625 22.402344 37.128906 C 21.191406 37.371094 19.972656 37.492188 18.742188 37.492188 C 17.511719 37.492188 16.292969 37.371094 15.085938 37.128906 C 13.878906 36.890625 12.707031 36.535156 11.570312 36.0625 C 10.429688 35.59375 9.351562 35.015625 8.328125 34.332031 C 7.304688 33.648438 6.355469 32.871094 5.488281 32 C 4.617188 31.128906 3.839844 30.183594 3.15625 29.160156 C 2.472656 28.136719 1.894531 27.054688 1.421875 25.917969 C 0.953125 24.78125 0.597656 23.609375 0.355469 22.402344 C 0.117188 21.191406 -0.00390625 19.972656 -0.00390625 18.742188 Z M -0.00390625 18.742188 "/>
</clipPath>
<clipPath id="clip28">
  <path d="M 15 21 L 28 21 L 28 23 L 15 23 Z M 15 21 "/>
</clipPath>
<clipPath id="clip29">
  <path d="M -0.00390625 18.742188 C -0.00390625 17.511719 0.117188 16.292969 0.355469 15.085938 C 0.597656 13.878906 0.953125 12.707031 1.421875 11.570312 C 1.894531 10.429688 2.472656 9.351562 3.15625 8.328125 C 3.839844 7.304688 4.617188 6.355469 5.488281 5.488281 C 6.355469 4.617188 7.304688 3.839844 8.328125 3.15625 C 9.351562 2.472656 10.429688 1.894531 11.570312 1.421875 C 12.707031 0.953125 13.878906 0.597656 15.085938 0.355469 C 16.292969 0.117188 17.511719 -0.00390625 18.742188 -0.00390625 C 19.972656 -0.00390625 21.191406 0.117188 22.402344 0.355469 C 23.609375 0.597656 24.78125 0.953125 25.917969 1.421875 C 27.054688 1.894531 28.136719 2.472656 29.160156 3.15625 C 30.183594 3.839844 31.128906 4.617188 32 5.488281 C 32.871094 6.355469 33.648438 7.304688 34.332031 8.328125 C 35.015625 9.351562 35.59375 10.429688 36.0625 11.570312 C 36.535156 12.707031 36.890625 13.878906 37.128906 15.085938 C 37.371094 16.292969 37.492188 17.511719 37.492188 18.742188 C 37.492188 19.972656 37.371094 21.191406 37.128906 22.402344 C 36.890625 23.609375 36.535156 24.78125 36.0625 25.917969 C 35.59375 27.054688 35.015625 28.136719 34.332031 29.160156 C 33.648438 30.183594 32.871094 31.128906 32 32 C 31.128906 32.871094 30.183594 33.648438 29.160156 34.332031 C 28.136719 35.015625 27.054688 35.59375 25.917969 36.0625 C 24.78125 36.535156 23.609375 36.890625 22.402344 37.128906 C 21.191406 37.371094 19.972656 37.492188 18.742188 37.492188 C 17.511719 37.492188 16.292969 37.371094 15.085938 37.128906 C 13.878906 36.890625 12.707031 36.535156 11.570312 36.0625 C 10.429688 35.59375 9.351562 35.015625 8.328125 34.332031 C 7.304688 33.648438 6.355469 32.871094 5.488281 32 C 4.617188 31.128906 3.839844 30.183594 3.15625 29.160156 C 2.472656 28.136719 1.894531 27.054688 1.421875 25.917969 C 0.953125 24.78125 0.597656 23.609375 0.355469 22.402344 C 0.117188 21.191406 -0.00390625 19.972656 -0.00390625 18.742188 Z M -0.00390625 18.742188 "/>
</clipPath>
<clipPath id="clip30">
  <path d="M 15 22 L 28 22 L 28 24 L 15 24 Z M 15 22 "/>
</clipPath>
<clipPath id="clip31">
  <path d="M -0.00390625 18.742188 C -0.00390625 17.511719 0.117188 16.292969 0.355469 15.085938 C 0.597656 13.878906 0.953125 12.707031 1.421875 11.570312 C 1.894531 10.429688 2.472656 9.351562 3.15625 8.328125 C 3.839844 7.304688 4.617188 6.355469 5.488281 5.488281 C 6.355469 4.617188 7.304688 3.839844 8.328125 3.15625 C 9.351562 2.472656 10.429688 1.894531 11.570312 1.421875 C 12.707031 0.953125 13.878906 0.597656 15.085938 0.355469 C 16.292969 0.117188 17.511719 -0.00390625 18.742188 -0.00390625 C 19.972656 -0.00390625 21.191406 0.117188 22.402344 0.355469 C 23.609375 0.597656 24.78125 0.953125 25.917969 1.421875 C 27.054688 1.894531 28.136719 2.472656 29.160156 3.15625 C 30.183594 3.839844 31.128906 4.617188 32 5.488281 C 32.871094 6.355469 33.648438 7.304688 34.332031 8.328125 C 35.015625 9.351562 35.59375 10.429688 36.0625 11.570312 C 36.535156 12.707031 36.890625 13.878906 37.128906 15.085938 C 37.371094 16.292969 37.492188 17.511719 37.492188 18.742188 C 37.492188 19.972656 37.371094 21.191406 37.128906 22.402344 C 36.890625 23.609375 36.535156 24.78125 36.0625 25.917969 C 35.59375 27.054688 35.015625 28.136719 34.332031 29.160156 C 33.648438 30.183594 32.871094 31.128906 32 32 C 31.128906 32.871094 30.183594 33.648438 29.160156 34.332031 C 28.136719 35.015625 27.054688 35.59375 25.917969 36.0625 C 24.78125 36.535156 23.609375 36.890625 22.402344 37.128906 C 21.191406 37.371094 19.972656 37.492188 18.742188 37.492188 C 17.511719 37.492188 16.292969 37.371094 15.085938 37.128906 C 13.878906 36.890625 12.707031 36.535156 11.570312 36.0625 C 10.429688 35.59375 9.351562 35.015625 8.328125 34.332031 C 7.304688 33.648438 6.355469 32.871094 5.488281 32 C 4.617188 31.128906 3.839844 30.183594 3.15625 29.160156 C 2.472656 28.136719 1.894531 27.054688 1.421875 25.917969 C 0.953125 24.78125 0.597656 23.609375 0.355469 22.402344 C 0.117188 21.191406 -0.00390625 19.972656 -0.00390625 18.742188 Z M -0.00390625 18.742188 "/>
</clipPath>
<clipPath id="clip32">
  <path d="M 15 27 L 28 27 L 28 29 L 15 29 Z M 15 27 "/>
</clipPath>
<clipPath id="clip33">
  <path d="M -0.00390625 18.742188 C -0.00390625 17.511719 0.117188 16.292969 0.355469 15.085938 C 0.597656 13.878906 0.953125 12.707031 1.421875 11.570312 C 1.894531 10.429688 2.472656 9.351562 3.15625 8.328125 C 3.839844 7.304688 4.617188 6.355469 5.488281 5.488281 C 6.355469 4.617188 7.304688 3.839844 8.328125 3.15625 C 9.351562 2.472656 10.429688 1.894531 11.570312 1.421875 C 12.707031 0.953125 13.878906 0.597656 15.085938 0.355469 C 16.292969 0.117188 17.511719 -0.00390625 18.742188 -0.00390625 C 19.972656 -0.00390625 21.191406 0.117188 22.402344 0.355469 C 23.609375 0.597656 24.78125 0.953125 25.917969 1.421875 C 27.054688 1.894531 28.136719 2.472656 29.160156 3.15625 C 30.183594 3.839844 31.128906 4.617188 32 5.488281 C 32.871094 6.355469 33.648438 7.304688 34.332031 8.328125 C 35.015625 9.351562 35.59375 10.429688 36.0625 11.570312 C 36.535156 12.707031 36.890625 13.878906 37.128906 15.085938 C 37.371094 16.292969 37.492188 17.511719 37.492188 18.742188 C 37.492188 19.972656 37.371094 21.191406 37.128906 22.402344 C 36.890625 23.609375 36.535156 24.78125 36.0625 25.917969 C 35.59375 27.054688 35.015625 28.136719 34.332031 29.160156 C 33.648438 30.183594 32.871094 31.128906 32 32 C 31.128906 32.871094 30.183594 33.648438 29.160156 34.332031 C 28.136719 35.015625 27.054688 35.59375 25.917969 36.0625 C 24.78125 36.535156 23.609375 36.890625 22.402344 37.128906 C 21.191406 37.371094 19.972656 37.492188 18.742188 37.492188 C 17.511719 37.492188 16.292969 37.371094 15.085938 37.128906 C 13.878906 36.890625 12.707031 36.535156 11.570312 36.0625 C 10.429688 35.59375 9.351562 35.015625 8.328125 34.332031 C 7.304688 33.648438 6.355469 32.871094 5.488281 32 C 4.617188 31.128906 3.839844 30.183594 3.15625 29.160156 C 2.472656 28.136719 1.894531 27.054688 1.421875 25.917969 C 0.953125 24.78125 0.597656 23.609375 0.355469 22.402344 C 0.117188 21.191406 -0.00390625 19.972656 -0.00390625 18.742188 Z M -0.00390625 18.742188 "/>
</clipPath>
<clipPath id="clip34">
  <path d="M 15 28 L 28 28 L 28 30 L 15 30 Z M 15 28 "/>
</clipPath>
<clipPath id="clip35">
  <path d="M -0.00390625 18.742188 C -0.00390625 17.511719 0.117188 16.292969 0.355469 15.085938 C 0.597656 13.878906 0.953125 12.707031 1.421875 11.570312 C 1.894531 10.429688 2.472656 9.351562 3.15625 8.328125 C 3.839844 7.304688 4.617188 6.355469 5.488281 5.488281 C 6.355469 4.617188 7.304688 3.839844 8.328125 3.15625 C 9.351562 2.472656 10.429688 1.894531 11.570312 1.421875 C 12.707031 0.953125 13.878906 0.597656 15.085938 0.355469 C 16.292969 0.117188 17.511719 -0.00390625 18.742188 -0.00390625 C 19.972656 -0.00390625 21.191406 0.117188 22.402344 0.355469 C 23.609375 0.597656 24.78125 0.953125 25.917969 1.421875 C 27.054688 1.894531 28.136719 2.472656 29.160156 3.15625 C 30.183594 3.839844 31.128906 4.617188 32 5.488281 C 32.871094 6.355469 33.648438 7.304688 34.332031 8.328125 C 35.015625 9.351562 35.59375 10.429688 36.0625 11.570312 C 36.535156 12.707031 36.890625 13.878906 37.128906 15.085938 C 37.371094 16.292969 37.492188 17.511719 37.492188 18.742188 C 37.492188 19.972656 37.371094 21.191406 37.128906 22.402344 C 36.890625 23.609375 36.535156 24.78125 36.0625 25.917969 C 35.59375 27.054688 35.015625 28.136719 34.332031 29.160156 C 33.648438 30.183594 32.871094 31.128906 32 32 C 31.128906 32.871094 30.183594 33.648438 29.160156 34.332031 C 28.136719 35.015625 27.054688 35.59375 25.917969 36.0625 C 24.78125 36.535156 23.609375 36.890625 22.402344 37.128906 C 21.191406 37.371094 19.972656 37.492188 18.742188 37.492188 C 17.511719 37.492188 16.292969 37.371094 15.085938 37.128906 C 13.878906 36.890625 12.707031 36.535156 11.570312 36.0625 C 10.429688 35.59375 9.351562 35.015625 8.328125 34.332031 C 7.304688 33.648438 6.355469 32.871094 5.488281 32 C 4.617188 31.128906 3.839844 30.183594 3.15625 29.160156 C 2.472656 28.136719 1.894531 27.054688 1.421875 25.917969 C 0.953125 24.78125 0.597656 23.609375 0.355469 22.402344 C 0.117188 21.191406 -0.00390625 19.972656 -0.00390625 18.742188 Z M -0.00390625 18.742188 "/>
</clipPath>
<clipPath id="clip36">
  <path d="M 15 33 L 28 33 L 28 34 L 15 34 Z M 15 33 "/>
</clipPath>
<clipPath id="clip37">
  <path d="M -0.00390625 18.742188 C -0.00390625 17.511719 0.117188 16.292969 0.355469 15.085938 C 0.597656 13.878906 0.953125 12.707031 1.421875 11.570312 C 1.894531 10.429688 2.472656 9.351562 3.15625 8.328125 C 3.839844 7.304688 4.617188 6.355469 5.488281 5.488281 C 6.355469 4.617188 7.304688 3.839844 8.328125 3.15625 C 9.351562 2.472656 10.429688 1.894531 11.570312 1.421875 C 12.707031 0.953125 13.878906 0.597656 15.085938 0.355469 C 16.292969 0.117188 17.511719 -0.00390625 18.742188 -0.00390625 C 19.972656 -0.00390625 21.191406 0.117188 22.402344 0.355469 C 23.609375 0.597656 24.78125 0.953125 25.917969 1.421875 C 27.054688 1.894531 28.136719 2.472656 29.160156 3.15625 C 30.183594 3.839844 31.128906 4.617188 32 5.488281 C 32.871094 6.355469 33.648438 7.304688 34.332031 8.328125 C 35.015625 9.351562 35.59375 10.429688 36.0625 11.570312 C 36.535156 12.707031 36.890625 13.878906 37.128906 15.085938 C 37.371094 16.292969 37.492188 17.511719 37.492188 18.742188 C 37.492188 19.972656 37.371094 21.191406 37.128906 22.402344 C 36.890625 23.609375 36.535156 24.78125 36.0625 25.917969 C 35.59375 27.054688 35.015625 28.136719 34.332031 29.160156 C 33.648438 30.183594 32.871094 31.128906 32 32 C 31.128906 32.871094 30.183594 33.648438 29.160156 34.332031 C 28.136719 35.015625 27.054688 35.59375 25.917969 36.0625 C 24.78125 36.535156 23.609375 36.890625 22.402344 37.128906 C 21.191406 37.371094 19.972656 37.492188 18.742188 37.492188 C 17.511719 37.492188 16.292969 37.371094 15.085938 37.128906 C 13.878906 36.890625 12.707031 36.535156 11.570312 36.0625 C 10.429688 35.59375 9.351562 35.015625 8.328125 34.332031 C 7.304688 33.648438 6.355469 32.871094 5.488281 32 C 4.617188 31.128906 3.839844 30.183594 3.15625 29.160156 C 2.472656 28.136719 1.894531 27.054688 1.421875 25.917969 C 0.953125 24.78125 0.597656 23.609375 0.355469 22.402344 C 0.117188 21.191406 -0.00390625 19.972656 -0.00390625 18.742188 Z M -0.00390625 18.742188 "/>
</clipPath>
<clipPath id="clip38">
  <path d="M 15 34 L 28 34 L 28 36 L 15 36 Z M 15 34 "/>
</clipPath>
<clipPath id="clip39">
  <path d="M -0.00390625 18.742188 C -0.00390625 17.511719 0.117188 16.292969 0.355469 15.085938 C 0.597656 13.878906 0.953125 12.707031 1.421875 11.570312 C 1.894531 10.429688 2.472656 9.351562 3.15625 8.328125 C 3.839844 7.304688 4.617188 6.355469 5.488281 5.488281 C 6.355469 4.617188 7.304688 3.839844 8.328125 3.15625 C 9.351562 2.472656 10.429688 1.894531 11.570312 1.421875 C 12.707031 0.953125 13.878906 0.597656 15.085938 0.355469 C 16.292969 0.117188 17.511719 -0.00390625 18.742188 -0.00390625 C 19.972656 -0.00390625 21.191406 0.117188 22.402344 0.355469 C 23.609375 0.597656 24.78125 0.953125 25.917969 1.421875 C 27.054688 1.894531 28.136719 2.472656 29.160156 3.15625 C 30.183594 3.839844 31.128906 4.617188 32 5.488281 C 32.871094 6.355469 33.648438 7.304688 34.332031 8.328125 C 35.015625 9.351562 35.59375 10.429688 36.0625 11.570312 C 36.535156 12.707031 36.890625 13.878906 37.128906 15.085938 C 37.371094 16.292969 37.492188 17.511719 37.492188 18.742188 C 37.492188 19.972656 37.371094 21.191406 37.128906 22.402344 C 36.890625 23.609375 36.535156 24.78125 36.0625 25.917969 C 35.59375 27.054688 35.015625 28.136719 34.332031 29.160156 C 33.648438 30.183594 32.871094 31.128906 32 32 C 31.128906 32.871094 30.183594 33.648438 29.160156 34.332031 C 28.136719 35.015625 27.054688 35.59375 25.917969 36.0625 C 24.78125 36.535156 23.609375 36.890625 22.402344 37.128906 C 21.191406 37.371094 19.972656 37.492188 18.742188 37.492188 C 17.511719 37.492188 16.292969 37.371094 15.085938 37.128906 C 13.878906 36.890625 12.707031 36.535156 11.570312 36.0625 C 10.429688 35.59375 9.351562 35.015625 8.328125 34.332031 C 7.304688 33.648438 6.355469 32.871094 5.488281 32 C 4.617188 31.128906 3.839844 30.183594 3.15625 29.160156 C 2.472656 28.136719 1.894531 27.054688 1.421875 25.917969 C 0.953125 24.78125 0.597656 23.609375 0.355469 22.402344 C 0.117188 21.191406 -0.00390625 19.972656 -0.00390625 18.742188 Z M -0.00390625 18.742188 "/>
</clipPath>
</defs>
<g id="surface1">
<g clip-path="url(#clip1)" clip-rule="nonzero">
<path style=" stroke:none;fill-rule:nonzero;fill:rgb(91.758728%,34.509277%,13.729858%);fill-opacity:1;" d="M 37.492188 18.742188 C 37.492188 19.355469 37.460938 19.96875 37.402344 20.582031 C 37.339844 21.191406 37.25 21.796875 37.128906 22.402344 C 37.011719 23.003906 36.863281 23.597656 36.683594 24.183594 C 36.503906 24.773438 36.296875 25.351562 36.0625 25.917969 C 35.828125 26.484375 35.566406 27.039062 35.277344 27.582031 C 34.988281 28.121094 34.671875 28.648438 34.332031 29.160156 C 33.988281 29.667969 33.625 30.160156 33.234375 30.636719 C 32.84375 31.109375 32.433594 31.566406 32 32 C 31.566406 32.433594 31.109375 32.84375 30.636719 33.234375 C 30.160156 33.625 29.667969 33.988281 29.160156 34.332031 C 28.648438 34.671875 28.121094 34.988281 27.582031 35.277344 C 27.039062 35.566406 26.484375 35.828125 25.917969 36.0625 C 25.351562 36.296875 24.773438 36.503906 24.183594 36.683594 C 23.597656 36.863281 23.003906 37.011719 22.402344 37.128906 C 21.796875 37.25 21.191406 37.339844 20.582031 37.402344 C 19.96875 37.460938 19.355469 37.492188 18.742188 37.492188 C 18.128906 37.492188 17.515625 37.460938 16.90625 37.402344 C 16.292969 37.339844 15.6875 37.25 15.085938 37.128906 C 14.484375 37.011719 13.886719 36.863281 13.300781 36.683594 C 12.714844 36.503906 12.136719 36.296875 11.570312 36.0625 C 11 35.828125 10.445312 35.566406 9.90625 35.277344 C 9.363281 34.988281 8.839844 34.671875 8.328125 34.332031 C 7.816406 33.988281 7.324219 33.625 6.851562 33.234375 C 6.375 32.84375 5.921875 32.433594 5.488281 32 C 5.050781 31.566406 4.640625 31.109375 4.25 30.636719 C 3.863281 30.160156 3.496094 29.667969 3.15625 29.160156 C 2.8125 28.648438 2.5 28.121094 2.210938 27.582031 C 1.917969 27.039062 1.65625 26.484375 1.421875 25.917969 C 1.1875 25.351562 0.980469 24.773438 0.804688 24.183594 C 0.625 23.597656 0.476562 23.003906 0.355469 22.402344 C 0.234375 21.796875 0.144531 21.191406 0.0859375 20.582031 C 0.0273438 19.96875 -0.00390625 19.355469 -0.00390625 18.742188 C -0.00390625 18.128906 0.0273438 17.515625 0.0859375 16.90625 C 0.144531 16.292969 0.234375 15.6875 0.355469 15.085938 C 0.476562 14.484375 0.625 13.886719 0.804688 13.300781 C 0.980469 12.714844 1.1875 12.136719 1.421875 11.570312 C 1.65625 11 1.917969 10.445312 2.210938 9.90625 C 2.5 9.363281 2.8125 8.839844 3.15625 8.328125 C 3.496094 7.816406 3.863281 7.324219 4.25 6.851562 C 4.640625 6.375 5.050781 5.921875 5.488281 5.488281 C 5.921875 5.050781 6.375 4.640625 6.851562 4.25 C 7.324219 3.863281 7.816406 3.496094 8.328125 3.15625 C 8.839844 2.8125 9.363281 2.5 9.90625 2.210938 C 10.445312 1.917969 11 1.65625 11.570312 1.421875 C 12.136719 1.1875 12.714844 0.980469 13.300781 0.804688 C 13.886719 0.625 14.484375 0.476562 15.085938 0.355469 C 15.6875 0.234375 16.292969 0.144531 16.90625 0.0859375 C 17.515625 0.0273438 18.128906 -0.00390625 18.742188 -0.00390625 C 19.355469 -0.00390625 19.96875 0.0273438 20.582031 0.0859375 C 21.191406 0.144531 21.796875 0.234375 22.402344 0.355469 C 23.003906 0.476562 23.597656 0.625 24.183594 0.804688 C 24.773438 0.980469 25.351562 1.1875 25.917969 1.421875 C 26.484375 1.65625 27.039062 1.917969 27.582031 2.210938 C 28.121094 2.5 28.648438 2.8125 29.160156 3.15625 C 29.667969 3.496094 30.160156 3.863281 30.636719 4.25 C 31.109375 4.640625 31.566406 5.050781 32 5.488281 C 32.433594 5.921875 32.84375 6.375 33.234375 6.851562 C 33.625 7.324219 33.988281 7.816406 34.332031 8.328125 C 34.671875 8.839844 34.988281 9.363281 35.277344 9.90625 C 35.566406 10.445312 35.828125 11 36.0625 11.570312 C 36.296875 12.136719 36.503906 12.714844 36.683594 13.300781 C 36.863281 13.886719 37.011719 14.484375 37.128906 15.085938 C 37.25 15.6875 37.339844 16.292969 37.402344 16.90625 C 37.460938 17.515625 37.492188 18.128906 37.492188 18.742188 Z M 37.492188 18.742188 "/>
</g>
<g clip-path="url(#clip2)" clip-rule="nonzero">
<g clip-path="url(#clip3)" clip-rule="nonzero">
<path style=" stroke:none;fill-rule:nonzero;fill:rgb(85.099792%,91.369629%,97.648621%);fill-opacity:1;" d="M 8.980469 7.414062 L 28.953125 7.414062 L 28.953125 37.4375 L 8.980469 37.4375 Z M 8.980469 7.414062 "/>
</g>
</g>
<g clip-path="url(#clip4)" clip-rule="nonzero">
<g clip-path="url(#clip5)" clip-rule="nonzero">
<path style=" stroke:none;fill-rule:nonzero;fill:rgb(58.81958%,81.17981%,94.898987%);fill-opacity:1;" d="M 8.980469 7.414062 L 11.105469 7.414062 L 11.105469 37.4375 L 8.980469 37.4375 Z M 8.980469 7.414062 "/>
</g>
</g>
<g clip-path="url(#clip6)" clip-rule="nonzero">
<g clip-path="url(#clip7)" clip-rule="nonzero">
<path style=" stroke:none;fill-rule:nonzero;fill:rgb(77.648926%,60.778809%,78.039551%);fill-opacity:1;" d="M 14.128906 16.566406 C 14.128906 16.855469 14.070312 17.136719 13.960938 17.410156 C 13.847656 17.679688 13.6875 17.917969 13.480469 18.125 C 13.273438 18.332031 13.035156 18.492188 12.765625 18.601562 C 12.496094 18.714844 12.214844 18.769531 11.921875 18.769531 C 11.628906 18.769531 11.347656 18.714844 11.078125 18.601562 C 10.808594 18.492188 10.570312 18.332031 10.363281 18.125 C 10.15625 17.917969 9.996094 17.679688 9.882812 17.410156 C 9.773438 17.136719 9.714844 16.855469 9.714844 16.566406 C 9.714844 16.273438 9.773438 15.992188 9.882812 15.71875 C 9.996094 15.449219 10.15625 15.210938 10.363281 15.003906 C 10.570312 14.796875 10.808594 14.640625 11.078125 14.527344 C 11.347656 14.414062 11.628906 14.359375 11.921875 14.359375 C 12.214844 14.359375 12.496094 14.414062 12.765625 14.527344 C 13.035156 14.640625 13.273438 14.796875 13.480469 15.003906 C 13.6875 15.210938 13.847656 15.449219 13.960938 15.71875 C 14.070312 15.992188 14.128906 16.273438 14.128906 16.566406 Z M 14.128906 16.566406 "/>
</g>
</g>
<g clip-path="url(#clip8)" clip-rule="nonzero">
<g clip-path="url(#clip9)" clip-rule="nonzero">
<path style=" stroke:none;fill-rule:nonzero;fill:rgb(100%,100%,100%);fill-opacity:1;" d="M 26.738281 12.359375 L 10.746094 12.359375 C 10.359375 12.359375 10.042969 12.042969 10.042969 11.65625 L 10.042969 9.792969 C 10.042969 9.40625 10.359375 9.089844 10.746094 9.089844 L 26.738281 9.089844 C 27.128906 9.089844 27.441406 9.40625 27.441406 9.792969 L 27.441406 11.65625 C 27.441406 12.042969 27.128906 12.359375 26.738281 12.359375 Z M 26.738281 12.359375 "/>
</g>
</g>
<g clip-path="url(#clip10)" clip-rule="nonzero">
<g clip-path="url(#clip11)" clip-rule="nonzero">
<path style=" stroke:none;fill-rule:nonzero;fill:rgb(56.079102%,28.62854%,58.81958%);fill-opacity:1;" d="M 13.472656 16.566406 C 13.472656 16.769531 13.433594 16.96875 13.355469 17.160156 C 13.277344 17.347656 13.164062 17.515625 13.019531 17.660156 C 12.875 17.808594 12.707031 17.917969 12.515625 18 C 12.324219 18.078125 12.128906 18.117188 11.921875 18.117188 C 11.714844 18.117188 11.519531 18.078125 11.328125 18 C 11.136719 17.917969 10.96875 17.808594 10.824219 17.660156 C 10.679688 17.515625 10.566406 17.347656 10.488281 17.160156 C 10.410156 16.96875 10.371094 16.769531 10.371094 16.566406 C 10.371094 16.359375 10.410156 16.160156 10.488281 15.96875 C 10.566406 15.78125 10.679688 15.613281 10.824219 15.46875 C 10.96875 15.320312 11.136719 15.210938 11.328125 15.128906 C 11.519531 15.050781 11.714844 15.011719 11.921875 15.011719 C 12.128906 15.011719 12.324219 15.050781 12.515625 15.128906 C 12.707031 15.210938 12.875 15.320312 13.019531 15.46875 C 13.164062 15.613281 13.277344 15.78125 13.355469 15.96875 C 13.433594 16.160156 13.472656 16.359375 13.472656 16.566406 Z M 13.472656 16.566406 "/>
</g>
</g>
<g clip-path="url(#clip12)" clip-rule="nonzero">
<g clip-path="url(#clip13)" clip-rule="nonzero">
<path style=" stroke:none;fill-rule:nonzero;fill:rgb(92.939758%,41.569519%,26.269531%);fill-opacity:1;" d="M 14.128906 22.425781 C 14.128906 22.71875 14.070312 23 13.960938 23.269531 C 13.847656 23.539062 13.6875 23.777344 13.480469 23.984375 C 13.273438 24.191406 13.035156 24.351562 12.765625 24.464844 C 12.496094 24.574219 12.214844 24.632812 11.921875 24.632812 C 11.628906 24.632812 11.347656 24.574219 11.078125 24.464844 C 10.808594 24.351562 10.570312 24.191406 10.363281 23.984375 C 10.15625 23.777344 9.996094 23.539062 9.882812 23.269531 C 9.773438 23 9.714844 22.71875 9.714844 22.425781 C 9.714844 22.132812 9.773438 21.851562 9.882812 21.582031 C 9.996094 21.3125 10.15625 21.074219 10.363281 20.867188 C 10.570312 20.660156 10.808594 20.5 11.078125 20.386719 C 11.347656 20.277344 11.628906 20.21875 11.921875 20.21875 C 12.214844 20.21875 12.496094 20.277344 12.765625 20.386719 C 13.035156 20.5 13.273438 20.660156 13.480469 20.867188 C 13.6875 21.074219 13.847656 21.3125 13.960938 21.582031 C 14.070312 21.851562 14.128906 22.132812 14.128906 22.425781 Z M 14.128906 22.425781 "/>
</g>
</g>
<g clip-path="url(#clip14)" clip-rule="nonzero">
<g clip-path="url(#clip15)" clip-rule="nonzero">
<path style=" stroke:none;fill-rule:nonzero;fill:rgb(90.979004%,27.449036%,8.628845%);fill-opacity:1;" d="M 13.472656 22.425781 C 13.472656 22.632812 13.433594 22.828125 13.355469 23.019531 C 13.277344 23.210938 13.164062 23.378906 13.019531 23.523438 C 12.875 23.667969 12.707031 23.78125 12.515625 23.859375 C 12.324219 23.9375 12.128906 23.976562 11.921875 23.976562 C 11.714844 23.976562 11.519531 23.9375 11.328125 23.859375 C 11.136719 23.78125 10.96875 23.667969 10.824219 23.523438 C 10.679688 23.378906 10.566406 23.210938 10.488281 23.019531 C 10.410156 22.828125 10.371094 22.632812 10.371094 22.425781 C 10.371094 22.21875 10.410156 22.023438 10.488281 21.832031 C 10.566406 21.640625 10.679688 21.472656 10.824219 21.328125 C 10.96875 21.183594 11.136719 21.070312 11.328125 20.992188 C 11.519531 20.914062 11.714844 20.875 11.921875 20.875 C 12.128906 20.875 12.324219 20.914062 12.515625 20.992188 C 12.707031 21.070312 12.875 21.183594 13.019531 21.328125 C 13.164062 21.472656 13.277344 21.640625 13.355469 21.832031 C 13.433594 22.023438 13.472656 22.21875 13.472656 22.425781 Z M 13.472656 22.425781 "/>
</g>
</g>
<g clip-path="url(#clip16)" clip-rule="nonzero">
<g clip-path="url(#clip17)" clip-rule="nonzero">
<path style=" stroke:none;fill-rule:nonzero;fill:rgb(94.509888%,52.549744%,20.779419%);fill-opacity:1;" d="M 14.128906 28.285156 C 14.128906 28.578125 14.070312 28.859375 13.960938 29.132812 C 13.847656 29.402344 13.6875 29.640625 13.480469 29.847656 C 13.273438 30.054688 13.035156 30.210938 12.765625 30.324219 C 12.496094 30.4375 12.214844 30.492188 11.921875 30.492188 C 11.628906 30.492188 11.347656 30.4375 11.078125 30.324219 C 10.808594 30.210938 10.570312 30.054688 10.363281 29.847656 C 10.15625 29.640625 9.996094 29.402344 9.882812 29.132812 C 9.773438 28.859375 9.714844 28.578125 9.714844 28.285156 C 9.714844 27.996094 9.773438 27.714844 9.882812 27.441406 C 9.996094 27.171875 10.15625 26.933594 10.363281 26.726562 C 10.570312 26.519531 10.808594 26.359375 11.078125 26.25 C 11.347656 26.136719 11.628906 26.082031 11.921875 26.082031 C 12.214844 26.082031 12.496094 26.136719 12.765625 26.25 C 13.035156 26.359375 13.273438 26.519531 13.480469 26.726562 C 13.6875 26.933594 13.847656 27.171875 13.960938 27.441406 C 14.070312 27.714844 14.128906 27.996094 14.128906 28.285156 Z M 14.128906 28.285156 "/>
</g>
</g>
<g clip-path="url(#clip18)" clip-rule="nonzero">
<g clip-path="url(#clip19)" clip-rule="nonzero">
<path style=" stroke:none;fill-rule:nonzero;fill:rgb(94.898987%,74.508667%,12.939453%);fill-opacity:1;" d="M 13.472656 28.285156 C 13.472656 28.492188 13.433594 28.691406 13.355469 28.882812 C 13.277344 29.070312 13.164062 29.238281 13.019531 29.382812 C 12.875 29.53125 12.707031 29.640625 12.515625 29.722656 C 12.324219 29.800781 12.128906 29.839844 11.921875 29.839844 C 11.714844 29.839844 11.519531 29.800781 11.328125 29.722656 C 11.136719 29.640625 10.96875 29.53125 10.824219 29.382812 C 10.679688 29.238281 10.566406 29.070312 10.488281 28.882812 C 10.410156 28.691406 10.371094 28.492188 10.371094 28.285156 C 10.371094 28.082031 10.410156 27.882812 10.488281 27.691406 C 10.566406 27.503906 10.679688 27.335938 10.824219 27.191406 C 10.96875 27.042969 11.136719 26.933594 11.328125 26.851562 C 11.519531 26.773438 11.714844 26.734375 11.921875 26.734375 C 12.128906 26.734375 12.324219 26.773438 12.515625 26.851562 C 12.707031 26.933594 12.875 27.042969 13.019531 27.191406 C 13.164062 27.335938 13.277344 27.503906 13.355469 27.691406 C 13.433594 27.882812 13.472656 28.082031 13.472656 28.285156 Z M 13.472656 28.285156 "/>
</g>
</g>
<g clip-path="url(#clip20)" clip-rule="nonzero">
<g clip-path="url(#clip21)" clip-rule="nonzero">
<path style=" stroke:none;fill-rule:nonzero;fill:rgb(0%,64.709473%,58.81958%);fill-opacity:1;" d="M 14.128906 34.148438 C 14.128906 34.441406 14.070312 34.722656 13.960938 34.992188 C 13.847656 35.261719 13.6875 35.5 13.480469 35.707031 C 13.273438 35.914062 13.035156 36.074219 12.765625 36.1875 C 12.496094 36.296875 12.214844 36.355469 11.921875 36.355469 C 11.628906 36.355469 11.347656 36.296875 11.078125 36.1875 C 10.808594 36.074219 10.570312 35.914062 10.363281 35.707031 C 10.15625 35.5 9.996094 35.261719 9.882812 34.992188 C 9.773438 34.722656 9.714844 34.441406 9.714844 34.148438 C 9.714844 33.855469 9.773438 33.574219 9.882812 33.304688 C 9.996094 33.035156 10.15625 32.796875 10.363281 32.589844 C 10.570312 32.382812 10.808594 32.222656 11.078125 32.109375 C 11.347656 32 11.628906 31.941406 11.921875 31.941406 C 12.214844 31.941406 12.496094 32 12.765625 32.109375 C 13.035156 32.222656 13.273438 32.382812 13.480469 32.589844 C 13.6875 32.796875 13.847656 33.035156 13.960938 33.304688 C 14.070312 33.574219 14.128906 33.855469 14.128906 34.148438 Z M 14.128906 34.148438 "/>
</g>
</g>
<g clip-path="url(#clip22)" clip-rule="nonzero">
<g clip-path="url(#clip23)" clip-rule="nonzero">
<path style=" stroke:none;fill-rule:nonzero;fill:rgb(0%,44.709778%,39.608765%);fill-opacity:1;" d="M 13.472656 34.148438 C 13.472656 34.355469 13.433594 34.550781 13.355469 34.742188 C 13.277344 34.933594 13.164062 35.101562 13.019531 35.246094 C 12.875 35.390625 12.707031 35.503906 12.515625 35.582031 C 12.324219 35.660156 12.128906 35.699219 11.921875 35.699219 C 11.714844 35.699219 11.519531 35.660156 11.328125 35.582031 C 11.136719 35.503906 10.96875 35.390625 10.824219 35.246094 C 10.679688 35.101562 10.566406 34.933594 10.488281 34.742188 C 10.410156 34.550781 10.371094 34.355469 10.371094 34.148438 C 10.371094 33.941406 10.410156 33.746094 10.488281 33.554688 C 10.566406 33.363281 10.679688 33.195312 10.824219 33.050781 C 10.96875 32.90625 11.136719 32.792969 11.328125 32.714844 C 11.519531 32.636719 11.714844 32.597656 11.921875 32.597656 C 12.128906 32.597656 12.324219 32.636719 12.515625 32.714844 C 12.707031 32.792969 12.875 32.90625 13.019531 33.050781 C 13.164062 33.195312 13.277344 33.363281 13.355469 33.554688 C 13.433594 33.746094 13.472656 33.941406 13.472656 34.148438 Z M 13.472656 34.148438 "/>
</g>
</g>
<g clip-path="url(#clip24)" clip-rule="nonzero">
<g clip-path="url(#clip25)" clip-rule="nonzero">
<path style=" stroke:none;fill-rule:nonzero;fill:rgb(56.079102%,28.62854%,58.81958%);fill-opacity:1;" d="M 15.230469 15.617188 L 27.117188 15.617188 L 27.117188 16.304688 L 15.230469 16.304688 Z M 15.230469 15.617188 "/>
</g>
</g>
<g clip-path="url(#clip26)" clip-rule="nonzero">
<g clip-path="url(#clip27)" clip-rule="nonzero">
<path style=" stroke:none;fill-rule:nonzero;fill:rgb(56.079102%,28.62854%,58.81958%);fill-opacity:1;" d="M 15.230469 16.824219 L 27.117188 16.824219 L 27.117188 17.511719 L 15.230469 17.511719 Z M 15.230469 16.824219 "/>
</g>
</g>
<g clip-path="url(#clip28)" clip-rule="nonzero">
<g clip-path="url(#clip29)" clip-rule="nonzero">
<path style=" stroke:none;fill-rule:nonzero;fill:rgb(90.979004%,27.449036%,8.628845%);fill-opacity:1;" d="M 15.230469 21.476562 L 27.117188 21.476562 L 27.117188 22.164062 L 15.230469 22.164062 Z M 15.230469 21.476562 "/>
</g>
</g>
<g clip-path="url(#clip30)" clip-rule="nonzero">
<g clip-path="url(#clip31)" clip-rule="nonzero">
<path style=" stroke:none;fill-rule:nonzero;fill:rgb(90.979004%,27.449036%,8.628845%);fill-opacity:1;" d="M 15.230469 22.6875 L 27.117188 22.6875 L 27.117188 23.375 L 15.230469 23.375 Z M 15.230469 22.6875 "/>
</g>
</g>
<g clip-path="url(#clip32)" clip-rule="nonzero">
<g clip-path="url(#clip33)" clip-rule="nonzero">
<path style=" stroke:none;fill-rule:nonzero;fill:rgb(94.509888%,52.549744%,20.779419%);fill-opacity:1;" d="M 15.230469 27.339844 L 27.117188 27.339844 L 27.117188 28.027344 L 15.230469 28.027344 Z M 15.230469 27.339844 "/>
</g>
</g>
<g clip-path="url(#clip34)" clip-rule="nonzero">
<g clip-path="url(#clip35)" clip-rule="nonzero">
<path style=" stroke:none;fill-rule:nonzero;fill:rgb(94.509888%,52.549744%,20.779419%);fill-opacity:1;" d="M 15.230469 28.546875 L 27.117188 28.546875 L 27.117188 29.234375 L 15.230469 29.234375 Z M 15.230469 28.546875 "/>
</g>
</g>
<g clip-path="url(#clip36)" clip-rule="nonzero">
<g clip-path="url(#clip37)" clip-rule="nonzero">
<path style=" stroke:none;fill-rule:nonzero;fill:rgb(0%,44.709778%,39.608765%);fill-opacity:1;" d="M 15.230469 33.199219 L 27.117188 33.199219 L 27.117188 33.886719 L 15.230469 33.886719 Z M 15.230469 33.199219 "/>
</g>
</g>
<g clip-path="url(#clip38)" clip-rule="nonzero">
<g clip-path="url(#clip39)" clip-rule="nonzero">
<path style=" stroke:none;fill-rule:nonzero;fill:rgb(0%,44.709778%,39.608765%);fill-opacity:1;" d="M 15.230469 34.410156 L 27.117188 34.410156 L 27.117188 35.097656 L 15.230469 35.097656 Z M 15.230469 34.410156 "/>
</g>
</g>
<path style=" stroke:none;fill-rule:nonzero;fill:rgb(21.569824%,27.839661%,59.609985%);fill-opacity:1;" d="M 29.144531 18.984375 C 27.28125 16.804688 24 16.546875 21.816406 18.414062 C 19.632812 20.277344 19.378906 23.558594 21.246094 25.742188 C 22.910156 27.691406 25.707031 28.097656 27.839844 26.832031 C 27.84375 26.839844 27.851562 26.851562 27.855469 26.859375 L 33.308594 33.234375 C 33.628906 33.609375 34.199219 33.65625 34.574219 33.332031 C 34.953125 33.007812 34.996094 32.441406 34.671875 32.066406 L 29.222656 25.691406 C 29.214844 25.683594 29.207031 25.675781 29.199219 25.667969 C 30.78125 23.757812 30.8125 20.933594 29.144531 18.984375 Z M 29.144531 18.984375 "/>
<path style=" stroke:none;fill-rule:nonzero;fill:rgb(59.21936%,66.668701%,84.709167%);fill-opacity:1;" d="M 28.816406 22.363281 C 28.816406 22.84375 28.722656 23.304688 28.539062 23.75 C 28.355469 24.191406 28.09375 24.582031 27.753906 24.921875 C 27.414062 25.261719 27.023438 25.523438 26.578125 25.707031 C 26.136719 25.890625 25.675781 25.984375 25.195312 25.984375 C 24.714844 25.984375 24.253906 25.890625 23.808594 25.707031 C 23.367188 25.523438 22.972656 25.261719 22.636719 24.921875 C 22.296875 24.582031 22.035156 24.191406 21.851562 23.75 C 21.667969 23.304688 21.574219 22.84375 21.574219 22.363281 C 21.574219 21.882812 21.667969 21.421875 21.851562 20.976562 C 22.035156 20.535156 22.296875 20.144531 22.636719 19.804688 C 22.972656 19.464844 23.367188 19.203125 23.808594 19.019531 C 24.253906 18.835938 24.714844 18.742188 25.195312 18.742188 C 25.675781 18.742188 26.136719 18.835938 26.578125 19.019531 C 27.023438 19.203125 27.414062 19.464844 27.753906 19.804688 C 28.09375 20.144531 28.355469 20.535156 28.539062 20.976562 C 28.722656 21.421875 28.816406 21.882812 28.816406 22.363281 Z M 28.816406 22.363281 "/>
</g>
</svg>
