<?xml version="1.0" encoding="UTF-8"?>
<svg xmlns="http://www.w3.org/2000/svg" xmlns:xlink="http://www.w3.org/1999/xlink" width="37.5pt" height="37.499999pt" viewBox="0 0 37.5 37.499999" version="1.2">
<defs>
<clipPath id="clip1">
  <path d="M 0 0 L 37.007812 0 L 37.007812 37.007812 L 0 37.007812 Z M 0 0 "/>
</clipPath>
</defs>
<g id="surface1">
<g clip-path="url(#clip1)" clip-rule="nonzero">
<path style=" stroke:none;fill-rule:nonzero;fill:rgb(14.118958%,17.649841%,28.62854%);fill-opacity:1;" d="M 37.5 18.75 C 37.5 29.105469 29.105469 37.5 18.75 37.5 C 8.394531 37.5 0 29.105469 0 18.75 C 0 8.394531 8.394531 0 18.75 0 C 29.105469 0 37.5 8.394531 37.5 18.75 "/>
</g>
<path style=" stroke:none;fill-rule:nonzero;fill:rgb(100%,100%,100%);fill-opacity:1;" d="M 9.039062 18.921875 C 8.296875 18.921875 7.691406 18.320312 7.691406 17.578125 L 7.691406 11.3125 C 7.691406 10.570312 8.296875 9.96875 9.039062 9.96875 L 18.535156 9.96875 C 19.28125 9.96875 19.882812 10.570312 19.882812 11.3125 L 19.882812 17.578125 C 19.882812 18.320312 19.28125 18.921875 18.535156 18.921875 L 11.585938 18.921875 L 9.445312 21.582031 L 9.445312 18.921875 Z M 29.8125 23.53125 C 29.8125 24.277344 29.207031 24.878906 28.464844 24.878906 L 28.054688 24.878906 L 28.054688 27.535156 L 25.917969 24.878906 L 18.964844 24.878906 C 18.222656 24.878906 17.617188 24.277344 17.617188 23.53125 L 17.617188 19.445312 L 18.535156 19.445312 C 19.566406 19.445312 20.402344 18.605469 20.402344 17.578125 L 20.402344 15.921875 L 28.464844 15.921875 C 29.207031 15.921875 29.8125 16.527344 29.8125 17.269531 Z M 28.464844 15.402344 L 20.402344 15.402344 L 20.402344 11.3125 C 20.402344 10.285156 19.566406 9.445312 18.535156 9.445312 L 9.039062 9.445312 C 8.007812 9.445312 7.171875 10.285156 7.171875 11.3125 L 7.171875 17.578125 C 7.171875 18.566406 7.949219 19.382812 8.925781 19.441406 L 8.925781 21.582031 C 8.925781 21.800781 9.066406 21.996094 9.273438 22.070312 C 9.332031 22.089844 9.390625 22.101562 9.445312 22.101562 C 9.601562 22.101562 9.75 22.03125 9.851562 21.90625 L 11.835938 19.445312 L 17.097656 19.445312 L 17.097656 23.53125 C 17.097656 24.5625 17.9375 25.398438 18.964844 25.398438 L 25.667969 25.398438 L 27.648438 27.863281 C 27.75 27.988281 27.902344 28.054688 28.054688 28.054688 C 28.113281 28.054688 28.171875 28.046875 28.226562 28.027344 C 28.4375 27.953125 28.574219 27.757812 28.574219 27.535156 L 28.574219 25.394531 C 29.554688 25.335938 30.332031 24.523438 30.332031 23.53125 L 30.332031 17.269531 C 30.332031 16.238281 29.492188 15.402344 28.464844 15.402344 "/>
<path style=" stroke:none;fill-rule:nonzero;fill:rgb(100%,100%,100%);fill-opacity:1;" d="M 11.25 13 L 12.730469 13 L 12.730469 16.308594 L 11.25 16.308594 Z M 16.082031 13.464844 C 16.0625 13.464844 16.042969 13.464844 16.023438 13.464844 L 14.957031 13.464844 C 14.894531 13.464844 14.832031 13.472656 14.773438 13.488281 C 14.734375 13.4375 14.707031 13.375 14.707031 13.304688 C 14.707031 13.136719 14.84375 13 15.011719 13 L 15.828125 13 C 15.996094 13 16.128906 13.136719 16.128906 13.304688 C 16.128906 13.363281 16.113281 13.417969 16.082031 13.464844 Z M 16.023438 14.460938 L 14.957031 14.460938 C 14.789062 14.460938 14.652344 14.324219 14.652344 14.15625 C 14.652344 13.988281 14.789062 13.851562 14.957031 13.851562 L 16.023438 13.851562 C 16.191406 13.851562 16.324219 13.988281 16.324219 14.15625 C 16.324219 14.324219 16.191406 14.460938 16.023438 14.460938 Z M 16.128906 15.96875 C 16.128906 16.136719 15.996094 16.273438 15.828125 16.273438 L 15.011719 16.273438 C 14.84375 16.273438 14.707031 16.136719 14.707031 15.96875 C 14.707031 15.898438 14.734375 15.835938 14.773438 15.78125 C 14.832031 15.800781 14.894531 15.808594 14.957031 15.808594 L 16.023438 15.808594 C 16.042969 15.808594 16.0625 15.808594 16.082031 15.804688 C 16.113281 15.851562 16.128906 15.910156 16.128906 15.96875 Z M 16.324219 15.113281 C 16.324219 15.28125 16.191406 15.417969 16.023438 15.417969 L 14.957031 15.417969 C 14.789062 15.417969 14.652344 15.28125 14.652344 15.113281 C 14.652344 14.992188 14.726562 14.886719 14.832031 14.839844 C 14.875 14.847656 14.914062 14.851562 14.957031 14.851562 L 16.023438 14.851562 C 16.066406 14.851562 16.105469 14.847656 16.144531 14.839844 C 16.253906 14.886719 16.324219 14.992188 16.324219 15.113281 Z M 15.640625 11.648438 C 15.765625 11.648438 15.890625 11.714844 15.953125 11.832031 C 16.050781 12.003906 15.984375 12.222656 15.8125 12.316406 L 15.285156 12.609375 L 15.011719 12.609375 C 14.628906 12.609375 14.316406 12.921875 14.316406 13.304688 C 14.316406 13.449219 14.363281 13.585938 14.441406 13.695312 C 14.332031 13.820312 14.265625 13.980469 14.265625 14.15625 C 14.265625 14.34375 14.339844 14.511719 14.457031 14.636719 C 14.339844 14.761719 14.265625 14.929688 14.265625 15.113281 C 14.265625 15.292969 14.332031 15.453125 14.441406 15.574219 C 14.363281 15.6875 14.316406 15.824219 14.316406 15.96875 C 14.316406 16.117188 14.367188 16.257812 14.445312 16.371094 C 14.058594 16.34375 13.703125 16.199219 13.414062 15.96875 L 13.121094 15.96875 L 13.121094 13.304688 L 13.234375 13.304688 C 13.339844 13.199219 13.457031 13.101562 13.570312 13.011719 C 13.765625 12.851562 13.964844 12.707031 14.171875 12.566406 C 14.328125 12.460938 14.484375 12.355469 14.640625 12.25 C 14.917969 12.0625 15.191406 11.878906 15.46875 11.691406 C 15.523438 11.660156 15.582031 11.648438 15.640625 11.648438 Z M 12.730469 16.699219 L 13.121094 16.699219 L 13.121094 16.359375 L 13.285156 16.359375 C 13.660156 16.621094 14.109375 16.765625 14.566406 16.765625 C 14.796875 16.765625 15.019531 16.730469 15.234375 16.664062 L 15.828125 16.664062 C 16.210938 16.664062 16.519531 16.351562 16.519531 15.96875 C 16.519531 15.859375 16.492188 15.753906 16.449219 15.660156 C 16.609375 15.535156 16.714844 15.335938 16.714844 15.113281 C 16.714844 14.929688 16.640625 14.761719 16.523438 14.636719 C 16.640625 14.511719 16.714844 14.34375 16.714844 14.15625 C 16.714844 13.933594 16.609375 13.738281 16.449219 13.609375 C 16.492188 13.515625 16.519531 13.414062 16.519531 13.304688 C 16.519531 12.992188 16.316406 12.726562 16.03125 12.640625 C 16.371094 12.433594 16.488281 11.992188 16.296875 11.644531 C 16.164062 11.40625 15.914062 11.257812 15.640625 11.257812 C 15.515625 11.257812 15.390625 11.289062 15.28125 11.351562 L 15.25 11.367188 L 14.699219 11.742188 L 14.425781 11.925781 C 14.34375 11.980469 14.261719 12.035156 14.179688 12.089844 C 14.105469 12.140625 14.027344 12.191406 13.953125 12.242188 C 13.730469 12.394531 13.515625 12.550781 13.324219 12.707031 L 13.292969 12.734375 C 13.234375 12.78125 13.179688 12.828125 13.121094 12.878906 L 13.121094 12.609375 L 10.859375 12.609375 L 10.859375 16.699219 L 12.730469 16.699219 "/>
<path style=" stroke:none;fill-rule:nonzero;fill:rgb(100%,100%,100%);fill-opacity:1;" d="M 11.953125 13.765625 C 11.882812 13.765625 11.824219 13.710938 11.824219 13.640625 C 11.824219 13.566406 11.882812 13.511719 11.953125 13.511719 C 12.027344 13.511719 12.082031 13.566406 12.082031 13.640625 C 12.082031 13.710938 12.027344 13.765625 11.953125 13.765625 Z M 11.953125 13.121094 C 11.667969 13.121094 11.4375 13.351562 11.4375 13.640625 C 11.4375 13.925781 11.667969 14.15625 11.953125 14.15625 C 12.242188 14.15625 12.472656 13.925781 12.472656 13.640625 C 12.472656 13.351562 12.242188 13.121094 11.953125 13.121094 "/>
<path style=" stroke:none;fill-rule:nonzero;fill:rgb(100%,100%,100%);fill-opacity:1;" d="M 25.722656 18.824219 C 26.28125 19.382812 26.28125 20.289062 25.722656 20.847656 L 23.714844 22.855469 L 21.707031 20.847656 C 21.148438 20.289062 21.148438 19.382812 21.707031 18.824219 C 21.988281 18.546875 22.351562 18.40625 22.71875 18.40625 C 23.078125 18.40625 23.4375 18.542969 23.714844 18.808594 C 23.992188 18.542969 24.351562 18.40625 24.710938 18.40625 C 25.078125 18.40625 25.441406 18.546875 25.722656 18.824219 Z M 24.710938 17.886719 L 24.710938 18.40625 L 24.710938 17.886719 C 24.355469 17.886719 24.011719 17.980469 23.714844 18.160156 C 23.417969 17.980469 23.074219 17.886719 22.71875 17.886719 C 22.199219 17.886719 21.707031 18.089844 21.339844 18.457031 C 20.578125 19.21875 20.578125 20.457031 21.339844 21.214844 L 23.347656 23.222656 C 23.445312 23.320312 23.578125 23.375 23.714844 23.375 C 23.851562 23.375 23.984375 23.320312 24.082031 23.222656 L 26.089844 21.214844 C 26.457031 20.847656 26.660156 20.359375 26.660156 19.835938 C 26.660156 19.316406 26.457031 18.828125 26.089844 18.457031 C 25.722656 18.089844 25.230469 17.886719 24.710938 17.886719 "/>
</g>
</svg>
